<mxfile host="app.diagrams.net" agent="Mozilla/5.0 (X11; Linux x86_64) AppleWebKit/537.36 (KHTML, like Gecko) Chrome/131.0.0.0 Safari/537.36" version="24.8.6">
  <diagram name="Page-1" id="2YBvvXClWsGukQMizWep">
    <mxGraphModel dx="1147" dy="630" grid="1" gridSize="10" guides="1" tooltips="1" connect="1" arrows="1" fold="1" page="1" pageScale="1" pageWidth="850" pageHeight="1100" math="0" shadow="0">
      <root>
        <mxCell id="0" />
        <mxCell id="1" parent="0" />
        <mxCell id="OFbl8fYpySPx44W1aXAL-2" value="student_list_view:&lt;br&gt;Student_list_view" style="shape=umlLifeline;perimeter=lifelinePerimeter;whiteSpace=wrap;html=1;container=1;dropTarget=0;collapsible=0;recursiveResize=0;outlineConnect=0;portConstraint=eastwest;newEdgeStyle={&quot;curved&quot;:0,&quot;rounded&quot;:0};" vertex="1" parent="1">
          <mxGeometry x="180" y="520" width="170" height="1020" as="geometry" />
        </mxCell>
        <mxCell id="OFbl8fYpySPx44W1aXAL-6" value="" style="html=1;points=[[0,0,0,0,5],[0,1,0,0,-5],[1,0,0,0,5],[1,1,0,0,-5]];perimeter=orthogonalPerimeter;outlineConnect=0;targetShapes=umlLifeline;portConstraint=eastwest;newEdgeStyle={&quot;curved&quot;:0,&quot;rounded&quot;:0};" vertex="1" parent="OFbl8fYpySPx44W1aXAL-2">
          <mxGeometry x="80" y="70" width="10" height="950" as="geometry" />
        </mxCell>
        <mxCell id="OFbl8fYpySPx44W1aXAL-23" value="" style="html=1;points=[[0,0,0,0,5],[0,1,0,0,-5],[1,0,0,0,5],[1,1,0,0,-5]];perimeter=orthogonalPerimeter;outlineConnect=0;targetShapes=umlLifeline;portConstraint=eastwest;newEdgeStyle={&quot;curved&quot;:0,&quot;rounded&quot;:0};" vertex="1" parent="OFbl8fYpySPx44W1aXAL-2">
          <mxGeometry x="85" y="80" width="10" height="30" as="geometry" />
        </mxCell>
        <mxCell id="OFbl8fYpySPx44W1aXAL-3" value="" style="shape=umlLifeline;perimeter=lifelinePerimeter;whiteSpace=wrap;html=1;container=1;dropTarget=0;collapsible=0;recursiveResize=0;outlineConnect=0;portConstraint=eastwest;newEdgeStyle={&quot;curved&quot;:0,&quot;rounded&quot;:0};participant=umlActor;" vertex="1" parent="1">
          <mxGeometry x="40" y="520" width="20" height="1050" as="geometry" />
        </mxCell>
        <mxCell id="OFbl8fYpySPx44W1aXAL-5" value="" style="html=1;points=[[0,0,0,0,5],[0,1,0,0,-5],[1,0,0,0,5],[1,1,0,0,-5]];perimeter=orthogonalPerimeter;outlineConnect=0;targetShapes=umlLifeline;portConstraint=eastwest;newEdgeStyle={&quot;curved&quot;:0,&quot;rounded&quot;:0};" vertex="1" parent="OFbl8fYpySPx44W1aXAL-3">
          <mxGeometry x="5" y="60" width="10" height="990" as="geometry" />
        </mxCell>
        <mxCell id="OFbl8fYpySPx44W1aXAL-4" value="Нажимает&lt;br&gt;&quot;Изменить&quot;" style="html=1;verticalAlign=bottom;startArrow=oval;startFill=1;endArrow=block;startSize=8;curved=0;rounded=0;" edge="1" parent="1" target="OFbl8fYpySPx44W1aXAL-2">
          <mxGeometry x="-0.4406" y="10" width="60" relative="1" as="geometry">
            <mxPoint x="50" y="590" as="sourcePoint" />
            <mxPoint x="110" y="590" as="targetPoint" />
            <mxPoint as="offset" />
          </mxGeometry>
        </mxCell>
        <mxCell id="OFbl8fYpySPx44W1aXAL-7" value=":Edit_student_modal" style="shape=umlLifeline;perimeter=lifelinePerimeter;whiteSpace=wrap;html=1;container=1;dropTarget=0;collapsible=0;recursiveResize=0;outlineConnect=0;portConstraint=eastwest;newEdgeStyle={&quot;curved&quot;:0,&quot;rounded&quot;:0};" vertex="1" parent="1">
          <mxGeometry x="390" y="520" width="170" height="940" as="geometry" />
        </mxCell>
        <mxCell id="OFbl8fYpySPx44W1aXAL-8" value="" style="html=1;points=[[0,0,0,0,5],[0,1,0,0,-5],[1,0,0,0,5],[1,1,0,0,-5]];perimeter=orthogonalPerimeter;outlineConnect=0;targetShapes=umlLifeline;portConstraint=eastwest;newEdgeStyle={&quot;curved&quot;:0,&quot;rounded&quot;:0};" vertex="1" parent="OFbl8fYpySPx44W1aXAL-7">
          <mxGeometry x="80" y="110" width="10" height="830" as="geometry" />
        </mxCell>
        <mxCell id="OFbl8fYpySPx44W1aXAL-25" value="" style="html=1;points=[[0,0,0,0,5],[0,1,0,0,-5],[1,0,0,0,5],[1,1,0,0,-5]];perimeter=orthogonalPerimeter;outlineConnect=0;targetShapes=umlLifeline;portConstraint=eastwest;newEdgeStyle={&quot;curved&quot;:0,&quot;rounded&quot;:0};" vertex="1" parent="OFbl8fYpySPx44W1aXAL-7">
          <mxGeometry x="85" y="160" width="10" height="25" as="geometry" />
        </mxCell>
        <mxCell id="OFbl8fYpySPx44W1aXAL-30" value="" style="html=1;points=[[0,0,0,0,5],[0,1,0,0,-5],[1,0,0,0,5],[1,1,0,0,-5]];perimeter=orthogonalPerimeter;outlineConnect=0;targetShapes=umlLifeline;portConstraint=eastwest;newEdgeStyle={&quot;curved&quot;:0,&quot;rounded&quot;:0};" vertex="1" parent="OFbl8fYpySPx44W1aXAL-7">
          <mxGeometry x="86" y="515" width="10" height="60" as="geometry" />
        </mxCell>
        <mxCell id="OFbl8fYpySPx44W1aXAL-31" value="enable_ok_btn" style="html=1;verticalAlign=bottom;endArrow=block;curved=0;rounded=0;" edge="1" parent="OFbl8fYpySPx44W1aXAL-7">
          <mxGeometry x="-0.4274" width="80" relative="1" as="geometry">
            <mxPoint x="91" y="515" as="sourcePoint" />
            <mxPoint x="90" y="535" as="targetPoint" />
            <Array as="points">
              <mxPoint x="131" y="515" />
              <mxPoint x="131" y="535" />
            </Array>
            <mxPoint as="offset" />
          </mxGeometry>
        </mxCell>
        <mxCell id="OFbl8fYpySPx44W1aXAL-35" value="" style="html=1;points=[[0,0,0,0,5],[0,1,0,0,-5],[1,0,0,0,5],[1,1,0,0,-5]];perimeter=orthogonalPerimeter;outlineConnect=0;targetShapes=umlLifeline;portConstraint=eastwest;newEdgeStyle={&quot;curved&quot;:0,&quot;rounded&quot;:0};" vertex="1" parent="OFbl8fYpySPx44W1aXAL-7">
          <mxGeometry x="85" y="585" width="10" height="355" as="geometry" />
        </mxCell>
        <mxCell id="OFbl8fYpySPx44W1aXAL-36" value="on_ok" style="html=1;verticalAlign=bottom;endArrow=block;curved=0;rounded=0;" edge="1" parent="OFbl8fYpySPx44W1aXAL-7">
          <mxGeometry x="0.1881" y="-10" width="80" relative="1" as="geometry">
            <mxPoint x="90" y="585" as="sourcePoint" />
            <mxPoint x="89" y="605" as="targetPoint" />
            <Array as="points">
              <mxPoint x="130" y="585" />
              <mxPoint x="130" y="605" />
            </Array>
            <mxPoint x="10" y="10" as="offset" />
          </mxGeometry>
        </mxCell>
        <mxCell id="OFbl8fYpySPx44W1aXAL-9" value="new()" style="html=1;verticalAlign=bottom;endArrow=block;curved=0;rounded=0;" edge="1" parent="1">
          <mxGeometry width="80" relative="1" as="geometry">
            <mxPoint x="270" y="630" as="sourcePoint" />
            <mxPoint x="474.5" y="630" as="targetPoint" />
            <Array as="points">
              <mxPoint x="360" y="630" />
            </Array>
          </mxGeometry>
        </mxCell>
        <mxCell id="OFbl8fYpySPx44W1aXAL-10" value="replace_student_controller:&lt;br&gt;Replace_student_controller" style="shape=umlLifeline;perimeter=lifelinePerimeter;whiteSpace=wrap;html=1;container=1;dropTarget=0;collapsible=0;recursiveResize=0;outlineConnect=0;portConstraint=eastwest;newEdgeStyle={&quot;curved&quot;:0,&quot;rounded&quot;:0};" vertex="1" parent="1">
          <mxGeometry x="600" y="520" width="170" height="940" as="geometry" />
        </mxCell>
        <mxCell id="OFbl8fYpySPx44W1aXAL-11" value="" style="html=1;points=[[0,0,0,0,5],[0,1,0,0,-5],[1,0,0,0,5],[1,1,0,0,-5]];perimeter=orthogonalPerimeter;outlineConnect=0;targetShapes=umlLifeline;portConstraint=eastwest;newEdgeStyle={&quot;curved&quot;:0,&quot;rounded&quot;:0};" vertex="1" parent="OFbl8fYpySPx44W1aXAL-10">
          <mxGeometry x="80" y="120" width="10" height="820" as="geometry" />
        </mxCell>
        <mxCell id="OFbl8fYpySPx44W1aXAL-38" value="" style="html=1;points=[[0,0,0,0,5],[0,1,0,0,-5],[1,0,0,0,5],[1,1,0,0,-5]];perimeter=orthogonalPerimeter;outlineConnect=0;targetShapes=umlLifeline;portConstraint=eastwest;newEdgeStyle={&quot;curved&quot;:0,&quot;rounded&quot;:0};" vertex="1" parent="OFbl8fYpySPx44W1aXAL-10">
          <mxGeometry x="85" y="625" width="10" height="80" as="geometry" />
        </mxCell>
        <mxCell id="OFbl8fYpySPx44W1aXAL-39" value="" style="html=1;points=[[0,0,0,0,5],[0,1,0,0,-5],[1,0,0,0,5],[1,1,0,0,-5]];perimeter=orthogonalPerimeter;outlineConnect=0;targetShapes=umlLifeline;portConstraint=eastwest;newEdgeStyle={&quot;curved&quot;:0,&quot;rounded&quot;:0};" vertex="1" parent="OFbl8fYpySPx44W1aXAL-10">
          <mxGeometry x="85" y="242" width="10" height="168" as="geometry" />
        </mxCell>
        <mxCell id="OFbl8fYpySPx44W1aXAL-12" value="new()" style="html=1;verticalAlign=bottom;endArrow=block;curved=0;rounded=0;" edge="1" parent="1">
          <mxGeometry width="80" relative="1" as="geometry">
            <mxPoint x="480" y="640" as="sourcePoint" />
            <mxPoint x="684.5" y="640" as="targetPoint" />
          </mxGeometry>
        </mxCell>
        <mxCell id="OFbl8fYpySPx44W1aXAL-13" value="return" style="html=1;verticalAlign=bottom;endArrow=open;dashed=1;endSize=8;curved=0;rounded=0;" edge="1" parent="1">
          <mxGeometry relative="1" as="geometry">
            <mxPoint x="680" y="660" as="sourcePoint" />
            <mxPoint x="475.0999999999999" y="660" as="targetPoint" />
            <Array as="points">
              <mxPoint x="540" y="660" />
            </Array>
          </mxGeometry>
        </mxCell>
        <mxCell id="OFbl8fYpySPx44W1aXAL-14" value="student_list_controller:&lt;br&gt;Student_list_controller" style="shape=umlLifeline;perimeter=lifelinePerimeter;whiteSpace=wrap;html=1;container=1;dropTarget=0;collapsible=0;recursiveResize=0;outlineConnect=0;portConstraint=eastwest;newEdgeStyle={&quot;curved&quot;:0,&quot;rounded&quot;:0};" vertex="1" parent="1">
          <mxGeometry x="840" y="520" width="170" height="960" as="geometry" />
        </mxCell>
        <mxCell id="OFbl8fYpySPx44W1aXAL-15" value="" style="html=1;points=[[0,0,0,0,5],[0,1,0,0,-5],[1,0,0,0,5],[1,1,0,0,-5]];perimeter=orthogonalPerimeter;outlineConnect=0;targetShapes=umlLifeline;portConstraint=eastwest;newEdgeStyle={&quot;curved&quot;:0,&quot;rounded&quot;:0};" vertex="1" parent="OFbl8fYpySPx44W1aXAL-14">
          <mxGeometry x="80" y="280" width="10" height="120" as="geometry" />
        </mxCell>
        <mxCell id="OFbl8fYpySPx44W1aXAL-57" value="" style="html=1;points=[[0,0,0,0,5],[0,1,0,0,-5],[1,0,0,0,5],[1,1,0,0,-5]];perimeter=orthogonalPerimeter;outlineConnect=0;targetShapes=umlLifeline;portConstraint=eastwest;newEdgeStyle={&quot;curved&quot;:0,&quot;rounded&quot;:0};" vertex="1" parent="OFbl8fYpySPx44W1aXAL-14">
          <mxGeometry x="80" y="670" width="10" height="250" as="geometry" />
        </mxCell>
        <mxCell id="OFbl8fYpySPx44W1aXAL-67" value="" style="html=1;points=[[0,0,0,0,5],[0,1,0,0,-5],[1,0,0,0,5],[1,1,0,0,-5]];perimeter=orthogonalPerimeter;outlineConnect=0;targetShapes=umlLifeline;portConstraint=eastwest;newEdgeStyle={&quot;curved&quot;:0,&quot;rounded&quot;:0};" vertex="1" parent="OFbl8fYpySPx44W1aXAL-14">
          <mxGeometry x="86" y="770" width="10" height="140" as="geometry" />
        </mxCell>
        <mxCell id="OFbl8fYpySPx44W1aXAL-16" value="data_list:&lt;br&gt;Data_list" style="shape=umlLifeline;perimeter=lifelinePerimeter;whiteSpace=wrap;html=1;container=1;dropTarget=0;collapsible=0;recursiveResize=0;outlineConnect=0;portConstraint=eastwest;newEdgeStyle={&quot;curved&quot;:0,&quot;rounded&quot;:0};" vertex="1" parent="1">
          <mxGeometry x="1080" y="520" width="170" height="1040" as="geometry" />
        </mxCell>
        <mxCell id="OFbl8fYpySPx44W1aXAL-17" value="" style="html=1;points=[[0,0,0,0,5],[0,1,0,0,-5],[1,0,0,0,5],[1,1,0,0,-5]];perimeter=orthogonalPerimeter;outlineConnect=0;targetShapes=umlLifeline;portConstraint=eastwest;newEdgeStyle={&quot;curved&quot;:0,&quot;rounded&quot;:0};" vertex="1" parent="OFbl8fYpySPx44W1aXAL-16">
          <mxGeometry x="80" y="280" width="10" height="30" as="geometry" />
        </mxCell>
        <mxCell id="OFbl8fYpySPx44W1aXAL-76" value="" style="html=1;points=[[0,0,0,0,5],[0,1,0,0,-5],[1,0,0,0,5],[1,1,0,0,-5]];perimeter=orthogonalPerimeter;outlineConnect=0;targetShapes=umlLifeline;portConstraint=eastwest;newEdgeStyle={&quot;curved&quot;:0,&quot;rounded&quot;:0};" vertex="1" parent="OFbl8fYpySPx44W1aXAL-16">
          <mxGeometry x="80" y="850" width="10" height="160" as="geometry" />
        </mxCell>
        <mxCell id="OFbl8fYpySPx44W1aXAL-18" value=":DB_client" style="shape=umlLifeline;perimeter=lifelinePerimeter;whiteSpace=wrap;html=1;container=1;dropTarget=0;collapsible=0;recursiveResize=0;outlineConnect=0;portConstraint=eastwest;newEdgeStyle={&quot;curved&quot;:0,&quot;rounded&quot;:0};" vertex="1" parent="1">
          <mxGeometry x="1620" y="520" width="170" height="940" as="geometry" />
        </mxCell>
        <mxCell id="OFbl8fYpySPx44W1aXAL-19" value="" style="html=1;points=[[0,0,0,0,5],[0,1,0,0,-5],[1,0,0,0,5],[1,1,0,0,-5]];perimeter=orthogonalPerimeter;outlineConnect=0;targetShapes=umlLifeline;portConstraint=eastwest;newEdgeStyle={&quot;curved&quot;:0,&quot;rounded&quot;:0};" vertex="1" parent="OFbl8fYpySPx44W1aXAL-18">
          <mxGeometry x="80" y="329" width="10" height="41" as="geometry" />
        </mxCell>
        <mxCell id="OFbl8fYpySPx44W1aXAL-20" value="students_list:&lt;br&gt;Students_list" style="shape=umlLifeline;perimeter=lifelinePerimeter;whiteSpace=wrap;html=1;container=1;dropTarget=0;collapsible=0;recursiveResize=0;outlineConnect=0;portConstraint=eastwest;newEdgeStyle={&quot;curved&quot;:0,&quot;rounded&quot;:0};" vertex="1" parent="1">
          <mxGeometry x="1360" y="520" width="170" height="980" as="geometry" />
        </mxCell>
        <mxCell id="OFbl8fYpySPx44W1aXAL-59" value="" style="html=1;points=[[0,0,0,0,5],[0,1,0,0,-5],[1,0,0,0,5],[1,1,0,0,-5]];perimeter=orthogonalPerimeter;outlineConnect=0;targetShapes=umlLifeline;portConstraint=eastwest;newEdgeStyle={&quot;curved&quot;:0,&quot;rounded&quot;:0};" vertex="1" parent="OFbl8fYpySPx44W1aXAL-20">
          <mxGeometry x="81" y="680" width="10" height="80" as="geometry" />
        </mxCell>
        <mxCell id="OFbl8fYpySPx44W1aXAL-69" value="" style="html=1;points=[[0,0,0,0,5],[0,1,0,0,-5],[1,0,0,0,5],[1,1,0,0,-5]];perimeter=orthogonalPerimeter;outlineConnect=0;targetShapes=umlLifeline;portConstraint=eastwest;newEdgeStyle={&quot;curved&quot;:0,&quot;rounded&quot;:0};" vertex="1" parent="OFbl8fYpySPx44W1aXAL-20">
          <mxGeometry x="81" y="810" width="10" height="70" as="geometry" />
        </mxCell>
        <mxCell id="OFbl8fYpySPx44W1aXAL-22" value="populate_fields()" style="html=1;verticalAlign=bottom;endArrow=block;curved=0;rounded=0;" edge="1" parent="1">
          <mxGeometry width="80" relative="1" as="geometry">
            <mxPoint x="480" y="763" as="sourcePoint" />
            <mxPoint x="685" y="763" as="targetPoint" />
          </mxGeometry>
        </mxCell>
        <mxCell id="OFbl8fYpySPx44W1aXAL-24" value="on_edit" style="html=1;verticalAlign=bottom;endArrow=block;curved=0;rounded=0;" edge="1" parent="1">
          <mxGeometry x="-0.4274" width="80" relative="1" as="geometry">
            <mxPoint x="270" y="600" as="sourcePoint" />
            <mxPoint x="270" y="620" as="targetPoint" />
            <Array as="points">
              <mxPoint x="310" y="600" />
              <mxPoint x="310" y="620" />
            </Array>
            <mxPoint as="offset" />
          </mxGeometry>
        </mxCell>
        <mxCell id="OFbl8fYpySPx44W1aXAL-26" value="setup_form" style="html=1;verticalAlign=bottom;endArrow=block;curved=0;rounded=0;" edge="1" parent="1">
          <mxGeometry x="-0.4274" width="80" relative="1" as="geometry">
            <mxPoint x="485" y="680" as="sourcePoint" />
            <mxPoint x="480" y="700" as="targetPoint" />
            <Array as="points">
              <mxPoint x="525" y="680" />
              <mxPoint x="525" y="700" />
            </Array>
            <mxPoint as="offset" />
          </mxGeometry>
        </mxCell>
        <mxCell id="OFbl8fYpySPx44W1aXAL-27" value="" style="html=1;points=[[0,0,0,0,5],[0,1,0,0,-5],[1,0,0,0,5],[1,1,0,0,-5]];perimeter=orthogonalPerimeter;outlineConnect=0;targetShapes=umlLifeline;portConstraint=eastwest;newEdgeStyle={&quot;curved&quot;:0,&quot;rounded&quot;:0};" vertex="1" parent="1">
          <mxGeometry x="476" y="722" width="10" height="25" as="geometry" />
        </mxCell>
        <mxCell id="OFbl8fYpySPx44W1aXAL-28" value="setup_buttons" style="html=1;verticalAlign=bottom;endArrow=block;curved=0;rounded=0;" edge="1" parent="1">
          <mxGeometry x="-0.4274" width="80" relative="1" as="geometry">
            <mxPoint x="486" y="722" as="sourcePoint" />
            <mxPoint x="481" y="742" as="targetPoint" />
            <Array as="points">
              <mxPoint x="526" y="722" />
              <mxPoint x="526" y="742" />
            </Array>
            <mxPoint as="offset" />
          </mxGeometry>
        </mxCell>
        <mxCell id="OFbl8fYpySPx44W1aXAL-29" value="Вводит поля (Фамилия, Имя, Отчество, Дата рождения)" style="html=1;verticalAlign=bottom;startArrow=oval;startFill=1;endArrow=block;startSize=8;curved=0;rounded=0;" edge="1" parent="1">
          <mxGeometry x="-0.1669" width="60" relative="1" as="geometry">
            <mxPoint x="55.25" y="1035" as="sourcePoint" />
            <mxPoint x="474.7500000000002" y="1035" as="targetPoint" />
            <mxPoint as="offset" />
          </mxGeometry>
        </mxCell>
        <mxCell id="OFbl8fYpySPx44W1aXAL-32" value="valid_data?" style="html=1;verticalAlign=bottom;endArrow=block;curved=0;rounded=0;" edge="1" parent="1">
          <mxGeometry width="80" relative="1" as="geometry">
            <mxPoint x="480" y="1065" as="sourcePoint" />
            <mxPoint x="684.5000000000002" y="1065" as="targetPoint" />
          </mxGeometry>
        </mxCell>
        <mxCell id="OFbl8fYpySPx44W1aXAL-33" value="return" style="html=1;verticalAlign=bottom;endArrow=open;dashed=1;endSize=8;curved=0;rounded=0;" edge="1" parent="1">
          <mxGeometry relative="1" as="geometry">
            <mxPoint x="680" y="1081" as="sourcePoint" />
            <mxPoint x="486" y="1081" as="targetPoint" />
          </mxGeometry>
        </mxCell>
        <mxCell id="OFbl8fYpySPx44W1aXAL-34" value="Нажимает &quot;ОК&quot;" style="html=1;verticalAlign=bottom;startArrow=oval;startFill=1;endArrow=block;startSize=8;curved=0;rounded=0;" edge="1" parent="1">
          <mxGeometry x="-0.1669" width="60" relative="1" as="geometry">
            <mxPoint x="55.25" y="1105" as="sourcePoint" />
            <mxPoint x="474.7500000000002" y="1105" as="targetPoint" />
            <mxPoint as="offset" />
          </mxGeometry>
        </mxCell>
        <mxCell id="OFbl8fYpySPx44W1aXAL-37" value="save_student" style="html=1;verticalAlign=bottom;endArrow=block;curved=0;rounded=0;" edge="1" parent="1">
          <mxGeometry width="80" relative="1" as="geometry">
            <mxPoint x="480" y="1145" as="sourcePoint" />
            <mxPoint x="684.5000000000002" y="1145" as="targetPoint" />
          </mxGeometry>
        </mxCell>
        <mxCell id="OFbl8fYpySPx44W1aXAL-40" value="get_student" style="html=1;verticalAlign=bottom;endArrow=block;curved=0;rounded=0;" edge="1" parent="1">
          <mxGeometry x="-0.4274" width="80" relative="1" as="geometry">
            <mxPoint x="694" y="762" as="sourcePoint" />
            <mxPoint x="689" y="782" as="targetPoint" />
            <Array as="points">
              <mxPoint x="734" y="762" />
              <mxPoint x="734" y="782" />
            </Array>
            <mxPoint as="offset" />
          </mxGeometry>
        </mxCell>
        <mxCell id="OFbl8fYpySPx44W1aXAL-41" value="get_selected" style="html=1;verticalAlign=bottom;endArrow=block;curved=0;rounded=0;" edge="1" parent="1" target="OFbl8fYpySPx44W1aXAL-14">
          <mxGeometry width="80" relative="1" as="geometry">
            <mxPoint x="694" y="800" as="sourcePoint" />
            <mxPoint x="774" y="800" as="targetPoint" />
          </mxGeometry>
        </mxCell>
        <mxCell id="OFbl8fYpySPx44W1aXAL-42" value="return" style="html=1;verticalAlign=bottom;endArrow=open;dashed=1;endSize=8;curved=0;rounded=0;" edge="1" parent="1">
          <mxGeometry relative="1" as="geometry">
            <mxPoint x="920" y="820" as="sourcePoint" />
            <mxPoint x="690" y="820" as="targetPoint" />
          </mxGeometry>
        </mxCell>
        <mxCell id="OFbl8fYpySPx44W1aXAL-43" value="get_student" style="html=1;verticalAlign=bottom;endArrow=block;curved=0;rounded=0;" edge="1" parent="1">
          <mxGeometry width="80" relative="1" as="geometry">
            <mxPoint x="690" y="837" as="sourcePoint" />
            <mxPoint x="921" y="837" as="targetPoint" />
          </mxGeometry>
        </mxCell>
        <mxCell id="OFbl8fYpySPx44W1aXAL-44" value="get_selected" style="html=1;verticalAlign=bottom;endArrow=block;curved=0;rounded=0;" edge="1" parent="1">
          <mxGeometry width="80" relative="1" as="geometry">
            <mxPoint x="930" y="807" as="sourcePoint" />
            <mxPoint x="1161" y="807" as="targetPoint" />
          </mxGeometry>
        </mxCell>
        <mxCell id="OFbl8fYpySPx44W1aXAL-45" value="return" style="html=1;verticalAlign=bottom;endArrow=open;dashed=1;endSize=8;curved=0;rounded=0;" edge="1" parent="1">
          <mxGeometry x="0.0435" y="15" relative="1" as="geometry">
            <mxPoint x="1160" y="815" as="sourcePoint" />
            <mxPoint x="930" y="815" as="targetPoint" />
            <mxPoint as="offset" />
          </mxGeometry>
        </mxCell>
        <mxCell id="OFbl8fYpySPx44W1aXAL-47" value="" style="html=1;verticalAlign=bottom;endArrow=block;curved=0;rounded=0;" edge="1" parent="1" target="OFbl8fYpySPx44W1aXAL-21">
          <mxGeometry width="80" relative="1" as="geometry">
            <mxPoint x="930" y="850" as="sourcePoint" />
            <mxPoint x="1445" y="850" as="targetPoint" />
          </mxGeometry>
        </mxCell>
        <mxCell id="OFbl8fYpySPx44W1aXAL-64" value="get_student()" style="edgeLabel;html=1;align=center;verticalAlign=middle;resizable=0;points=[];" vertex="1" connectable="0" parent="OFbl8fYpySPx44W1aXAL-47">
          <mxGeometry x="-0.0359" y="-1" relative="1" as="geometry">
            <mxPoint as="offset" />
          </mxGeometry>
        </mxCell>
        <mxCell id="OFbl8fYpySPx44W1aXAL-21" value="" style="html=1;points=[[0,0,0,0,5],[0,1,0,0,-5],[1,0,0,0,5],[1,1,0,0,-5]];perimeter=orthogonalPerimeter;outlineConnect=0;targetShapes=umlLifeline;portConstraint=eastwest;newEdgeStyle={&quot;curved&quot;:0,&quot;rounded&quot;:0};" vertex="1" parent="1">
          <mxGeometry x="1440" y="849" width="10" height="61" as="geometry" />
        </mxCell>
        <mxCell id="OFbl8fYpySPx44W1aXAL-49" value="query()" style="html=1;verticalAlign=bottom;endArrow=block;curved=0;rounded=0;" edge="1" parent="1" target="OFbl8fYpySPx44W1aXAL-18">
          <mxGeometry width="80" relative="1" as="geometry">
            <mxPoint x="1450" y="860" as="sourcePoint" />
            <mxPoint x="1530" y="860" as="targetPoint" />
          </mxGeometry>
        </mxCell>
        <mxCell id="OFbl8fYpySPx44W1aXAL-50" value="return" style="html=1;verticalAlign=bottom;endArrow=open;dashed=1;endSize=8;curved=0;rounded=0;" edge="1" parent="1" source="OFbl8fYpySPx44W1aXAL-19">
          <mxGeometry relative="1" as="geometry">
            <mxPoint x="1799" y="878.5" as="sourcePoint" />
            <mxPoint x="1449" y="878.5" as="targetPoint" />
          </mxGeometry>
        </mxCell>
        <mxCell id="OFbl8fYpySPx44W1aXAL-51" value="return" style="html=1;verticalAlign=bottom;endArrow=open;dashed=1;endSize=8;curved=0;rounded=0;" edge="1" parent="1" target="OFbl8fYpySPx44W1aXAL-14">
          <mxGeometry relative="1" as="geometry">
            <mxPoint x="1440" y="900" as="sourcePoint" />
            <mxPoint x="1360" y="900" as="targetPoint" />
          </mxGeometry>
        </mxCell>
        <mxCell id="OFbl8fYpySPx44W1aXAL-52" value="return" style="html=1;verticalAlign=bottom;endArrow=open;dashed=1;endSize=8;curved=0;rounded=0;" edge="1" parent="1">
          <mxGeometry relative="1" as="geometry">
            <mxPoint x="920" y="910" as="sourcePoint" />
            <mxPoint x="690" y="910" as="targetPoint" />
          </mxGeometry>
        </mxCell>
        <mxCell id="OFbl8fYpySPx44W1aXAL-53" value="fields=()" style="html=1;verticalAlign=bottom;endArrow=block;curved=0;rounded=0;exitX=0;exitY=1;exitDx=0;exitDy=-5;exitPerimeter=0;" edge="1" parent="1">
          <mxGeometry width="80" relative="1" as="geometry">
            <mxPoint x="684" y="930" as="sourcePoint" />
            <mxPoint x="480" y="930" as="targetPoint" />
          </mxGeometry>
        </mxCell>
        <mxCell id="OFbl8fYpySPx44W1aXAL-54" value="new_student" style="html=1;verticalAlign=bottom;endArrow=block;curved=0;rounded=0;" edge="1" parent="1">
          <mxGeometry x="-0.4274" width="80" relative="1" as="geometry">
            <mxPoint x="693" y="1145" as="sourcePoint" />
            <mxPoint x="692" y="1165" as="targetPoint" />
            <Array as="points">
              <mxPoint x="733" y="1145" />
              <mxPoint x="733" y="1165" />
            </Array>
            <mxPoint as="offset" />
          </mxGeometry>
        </mxCell>
        <mxCell id="OFbl8fYpySPx44W1aXAL-58" value="replace_student" style="html=1;verticalAlign=bottom;endArrow=block;curved=0;rounded=0;" edge="1" parent="1" target="OFbl8fYpySPx44W1aXAL-14">
          <mxGeometry width="80" relative="1" as="geometry">
            <mxPoint x="694" y="1190" as="sourcePoint" />
            <mxPoint x="774" y="1190" as="targetPoint" />
          </mxGeometry>
        </mxCell>
        <mxCell id="OFbl8fYpySPx44W1aXAL-60" value="replace_student" style="html=1;verticalAlign=bottom;endArrow=block;curved=0;rounded=0;" edge="1" parent="1" target="OFbl8fYpySPx44W1aXAL-20">
          <mxGeometry width="80" relative="1" as="geometry">
            <mxPoint x="930" y="1210" as="sourcePoint" />
            <mxPoint x="1160" y="1210" as="targetPoint" />
          </mxGeometry>
        </mxCell>
        <mxCell id="OFbl8fYpySPx44W1aXAL-61" value="query()" style="html=1;verticalAlign=bottom;endArrow=block;curved=0;rounded=0;" edge="1" parent="1" source="OFbl8fYpySPx44W1aXAL-63" target="OFbl8fYpySPx44W1aXAL-18">
          <mxGeometry x="NaN" y="126" width="80" relative="1" as="geometry">
            <mxPoint x="1450" y="1230" as="sourcePoint" />
            <mxPoint x="1530" y="1230" as="targetPoint" />
            <mxPoint x="-125" y="-19" as="offset" />
          </mxGeometry>
        </mxCell>
        <mxCell id="OFbl8fYpySPx44W1aXAL-62" value="" style="html=1;verticalAlign=bottom;endArrow=block;curved=0;rounded=0;" edge="1" parent="1" target="OFbl8fYpySPx44W1aXAL-63">
          <mxGeometry width="80" relative="1" as="geometry">
            <mxPoint x="1450" y="1230" as="sourcePoint" />
            <mxPoint x="1704" y="1230" as="targetPoint" />
          </mxGeometry>
        </mxCell>
        <mxCell id="OFbl8fYpySPx44W1aXAL-63" value="" style="html=1;points=[[0,0,0,0,5],[0,1,0,0,-5],[1,0,0,0,5],[1,1,0,0,-5]];perimeter=orthogonalPerimeter;outlineConnect=0;targetShapes=umlLifeline;portConstraint=eastwest;newEdgeStyle={&quot;curved&quot;:0,&quot;rounded&quot;:0};" vertex="1" parent="1">
          <mxGeometry x="1701" y="1219" width="10" height="41" as="geometry" />
        </mxCell>
        <mxCell id="OFbl8fYpySPx44W1aXAL-65" value="return" style="html=1;verticalAlign=bottom;endArrow=open;dashed=1;endSize=8;curved=0;rounded=0;" edge="1" parent="1" target="OFbl8fYpySPx44W1aXAL-20">
          <mxGeometry relative="1" as="geometry">
            <mxPoint x="1700" y="1250" as="sourcePoint" />
            <mxPoint x="1620" y="1250" as="targetPoint" />
          </mxGeometry>
        </mxCell>
        <mxCell id="OFbl8fYpySPx44W1aXAL-66" value="return" style="html=1;verticalAlign=bottom;endArrow=open;dashed=1;endSize=8;curved=0;rounded=0;" edge="1" parent="1" target="OFbl8fYpySPx44W1aXAL-14">
          <mxGeometry relative="1" as="geometry">
            <mxPoint x="1440" y="1270" as="sourcePoint" />
            <mxPoint x="1360" y="1270" as="targetPoint" />
          </mxGeometry>
        </mxCell>
        <mxCell id="OFbl8fYpySPx44W1aXAL-68" value="refresh_data" style="html=1;verticalAlign=bottom;endArrow=block;curved=0;rounded=0;" edge="1" parent="1">
          <mxGeometry x="-0.0099" y="9" width="80" relative="1" as="geometry">
            <mxPoint x="931" y="1290" as="sourcePoint" />
            <mxPoint x="930" y="1310" as="targetPoint" />
            <Array as="points">
              <mxPoint x="971" y="1290" />
              <mxPoint x="971" y="1310" />
            </Array>
            <mxPoint as="offset" />
          </mxGeometry>
        </mxCell>
        <mxCell id="OFbl8fYpySPx44W1aXAL-70" value="get_k_n_students" style="html=1;verticalAlign=bottom;endArrow=block;curved=0;rounded=0;" edge="1" parent="1" target="OFbl8fYpySPx44W1aXAL-20">
          <mxGeometry width="80" relative="1" as="geometry">
            <mxPoint x="939" y="1340" as="sourcePoint" />
            <mxPoint x="1019" y="1340" as="targetPoint" />
          </mxGeometry>
        </mxCell>
        <mxCell id="OFbl8fYpySPx44W1aXAL-72" value="" style="html=1;verticalAlign=bottom;endArrow=block;curved=0;rounded=0;" edge="1" parent="1" target="OFbl8fYpySPx44W1aXAL-73">
          <mxGeometry width="80" relative="1" as="geometry">
            <mxPoint x="1450" y="1350" as="sourcePoint" />
            <mxPoint x="1704" y="1350" as="targetPoint" />
          </mxGeometry>
        </mxCell>
        <mxCell id="OFbl8fYpySPx44W1aXAL-73" value="" style="html=1;points=[[0,0,0,0,5],[0,1,0,0,-5],[1,0,0,0,5],[1,1,0,0,-5]];perimeter=orthogonalPerimeter;outlineConnect=0;targetShapes=umlLifeline;portConstraint=eastwest;newEdgeStyle={&quot;curved&quot;:0,&quot;rounded&quot;:0};" vertex="1" parent="1">
          <mxGeometry x="1701" y="1339" width="10" height="41" as="geometry" />
        </mxCell>
        <mxCell id="OFbl8fYpySPx44W1aXAL-74" value="return" style="html=1;verticalAlign=bottom;endArrow=open;dashed=1;endSize=8;curved=0;rounded=0;" edge="1" parent="1">
          <mxGeometry relative="1" as="geometry">
            <mxPoint x="1700" y="1370" as="sourcePoint" />
            <mxPoint x="1445" y="1370" as="targetPoint" />
          </mxGeometry>
        </mxCell>
        <mxCell id="OFbl8fYpySPx44W1aXAL-75" value="return" style="html=1;verticalAlign=bottom;endArrow=open;dashed=1;endSize=8;curved=0;rounded=0;" edge="1" parent="1" target="OFbl8fYpySPx44W1aXAL-67">
          <mxGeometry relative="1" as="geometry">
            <mxPoint x="1440" y="1390" as="sourcePoint" />
            <mxPoint x="940" y="1390" as="targetPoint" />
          </mxGeometry>
        </mxCell>
        <mxCell id="OFbl8fYpySPx44W1aXAL-79" value="notify" style="html=1;verticalAlign=bottom;endArrow=block;curved=0;rounded=0;" edge="1" parent="1" target="OFbl8fYpySPx44W1aXAL-16">
          <mxGeometry width="80" relative="1" as="geometry">
            <mxPoint x="940" y="1420" as="sourcePoint" />
            <mxPoint x="1010" y="1420" as="targetPoint" />
          </mxGeometry>
        </mxCell>
        <mxCell id="OFbl8fYpySPx44W1aXAL-80" value="set_table_params" style="html=1;verticalAlign=bottom;endArrow=block;curved=0;rounded=0;" edge="1" parent="1">
          <mxGeometry width="80" relative="1" as="geometry">
            <mxPoint x="1164.5" y="1476" as="sourcePoint" />
            <mxPoint x="270" y="1476" as="targetPoint" />
          </mxGeometry>
        </mxCell>
        <mxCell id="OFbl8fYpySPx44W1aXAL-81" value="set_table_data" style="html=1;verticalAlign=bottom;endArrow=block;curved=0;rounded=0;" edge="1" parent="1">
          <mxGeometry width="80" relative="1" as="geometry">
            <mxPoint x="1164.5" y="1508" as="sourcePoint" />
            <mxPoint x="270" y="1508" as="targetPoint" />
          </mxGeometry>
        </mxCell>
        <mxCell id="OFbl8fYpySPx44W1aXAL-82" value="Отображение новых данных" style="html=1;verticalAlign=bottom;endArrow=block;curved=0;rounded=0;exitX=0;exitY=1;exitDx=0;exitDy=-5;exitPerimeter=0;" edge="1" parent="1">
          <mxGeometry width="80" relative="1" as="geometry">
            <mxPoint x="260" y="1528" as="sourcePoint" />
            <mxPoint x="49.81034482758605" y="1528" as="targetPoint" />
          </mxGeometry>
        </mxCell>
        <mxCell id="OFbl8fYpySPx44W1aXAL-83" value="return" style="html=1;verticalAlign=bottom;endArrow=open;dashed=1;endSize=8;curved=0;rounded=0;" edge="1" parent="1">
          <mxGeometry relative="1" as="geometry">
            <mxPoint x="920" y="1440" as="sourcePoint" />
            <mxPoint x="690" y="1440" as="targetPoint" />
          </mxGeometry>
        </mxCell>
        <mxCell id="OFbl8fYpySPx44W1aXAL-84" value="close()" style="html=1;verticalAlign=bottom;endArrow=block;curved=0;rounded=0;" edge="1" parent="1">
          <mxGeometry width="80" relative="1" as="geometry">
            <mxPoint x="679.9999999999998" y="1450" as="sourcePoint" />
            <mxPoint x="484.9999999999998" y="1450" as="targetPoint" />
          </mxGeometry>
        </mxCell>
        <mxCell id="OFbl8fYpySPx44W1aXAL-85" value="student_list_view:&lt;br&gt;Student_list_view" style="shape=umlLifeline;perimeter=lifelinePerimeter;whiteSpace=wrap;html=1;container=1;dropTarget=0;collapsible=0;recursiveResize=0;outlineConnect=0;portConstraint=eastwest;newEdgeStyle={&quot;curved&quot;:0,&quot;rounded&quot;:0};" vertex="1" parent="1">
          <mxGeometry x="2080" y="520" width="170" height="1020" as="geometry" />
        </mxCell>
        <mxCell id="OFbl8fYpySPx44W1aXAL-86" value="" style="html=1;points=[[0,0,0,0,5],[0,1,0,0,-5],[1,0,0,0,5],[1,1,0,0,-5]];perimeter=orthogonalPerimeter;outlineConnect=0;targetShapes=umlLifeline;portConstraint=eastwest;newEdgeStyle={&quot;curved&quot;:0,&quot;rounded&quot;:0};" vertex="1" parent="OFbl8fYpySPx44W1aXAL-85">
          <mxGeometry x="80" y="70" width="10" height="950" as="geometry" />
        </mxCell>
        <mxCell id="OFbl8fYpySPx44W1aXAL-87" value="" style="html=1;points=[[0,0,0,0,5],[0,1,0,0,-5],[1,0,0,0,5],[1,1,0,0,-5]];perimeter=orthogonalPerimeter;outlineConnect=0;targetShapes=umlLifeline;portConstraint=eastwest;newEdgeStyle={&quot;curved&quot;:0,&quot;rounded&quot;:0};" vertex="1" parent="OFbl8fYpySPx44W1aXAL-85">
          <mxGeometry x="85" y="80" width="10" height="30" as="geometry" />
        </mxCell>
        <mxCell id="OFbl8fYpySPx44W1aXAL-88" value="" style="shape=umlLifeline;perimeter=lifelinePerimeter;whiteSpace=wrap;html=1;container=1;dropTarget=0;collapsible=0;recursiveResize=0;outlineConnect=0;portConstraint=eastwest;newEdgeStyle={&quot;curved&quot;:0,&quot;rounded&quot;:0};participant=umlActor;" vertex="1" parent="1">
          <mxGeometry x="1940" y="520" width="20" height="1050" as="geometry" />
        </mxCell>
        <mxCell id="OFbl8fYpySPx44W1aXAL-89" value="" style="html=1;points=[[0,0,0,0,5],[0,1,0,0,-5],[1,0,0,0,5],[1,1,0,0,-5]];perimeter=orthogonalPerimeter;outlineConnect=0;targetShapes=umlLifeline;portConstraint=eastwest;newEdgeStyle={&quot;curved&quot;:0,&quot;rounded&quot;:0};" vertex="1" parent="OFbl8fYpySPx44W1aXAL-88">
          <mxGeometry x="5" y="60" width="10" height="990" as="geometry" />
        </mxCell>
        <mxCell id="OFbl8fYpySPx44W1aXAL-90" value="Нажимает&lt;br&gt;&quot;Добавить&quot;" style="html=1;verticalAlign=bottom;startArrow=oval;startFill=1;endArrow=block;startSize=8;curved=0;rounded=0;" edge="1" parent="1" target="OFbl8fYpySPx44W1aXAL-85">
          <mxGeometry x="-0.4406" y="10" width="60" relative="1" as="geometry">
            <mxPoint x="1950" y="590" as="sourcePoint" />
            <mxPoint x="2010" y="590" as="targetPoint" />
            <mxPoint as="offset" />
          </mxGeometry>
        </mxCell>
        <mxCell id="OFbl8fYpySPx44W1aXAL-91" value=":Edit_student_modal" style="shape=umlLifeline;perimeter=lifelinePerimeter;whiteSpace=wrap;html=1;container=1;dropTarget=0;collapsible=0;recursiveResize=0;outlineConnect=0;portConstraint=eastwest;newEdgeStyle={&quot;curved&quot;:0,&quot;rounded&quot;:0};" vertex="1" parent="1">
          <mxGeometry x="2290" y="520" width="170" height="940" as="geometry" />
        </mxCell>
        <mxCell id="OFbl8fYpySPx44W1aXAL-92" value="" style="html=1;points=[[0,0,0,0,5],[0,1,0,0,-5],[1,0,0,0,5],[1,1,0,0,-5]];perimeter=orthogonalPerimeter;outlineConnect=0;targetShapes=umlLifeline;portConstraint=eastwest;newEdgeStyle={&quot;curved&quot;:0,&quot;rounded&quot;:0};" vertex="1" parent="OFbl8fYpySPx44W1aXAL-91">
          <mxGeometry x="80" y="110" width="10" height="830" as="geometry" />
        </mxCell>
        <mxCell id="OFbl8fYpySPx44W1aXAL-93" value="" style="html=1;points=[[0,0,0,0,5],[0,1,0,0,-5],[1,0,0,0,5],[1,1,0,0,-5]];perimeter=orthogonalPerimeter;outlineConnect=0;targetShapes=umlLifeline;portConstraint=eastwest;newEdgeStyle={&quot;curved&quot;:0,&quot;rounded&quot;:0};" vertex="1" parent="OFbl8fYpySPx44W1aXAL-91">
          <mxGeometry x="85" y="160" width="10" height="25" as="geometry" />
        </mxCell>
        <mxCell id="OFbl8fYpySPx44W1aXAL-94" value="" style="html=1;points=[[0,0,0,0,5],[0,1,0,0,-5],[1,0,0,0,5],[1,1,0,0,-5]];perimeter=orthogonalPerimeter;outlineConnect=0;targetShapes=umlLifeline;portConstraint=eastwest;newEdgeStyle={&quot;curved&quot;:0,&quot;rounded&quot;:0};" vertex="1" parent="OFbl8fYpySPx44W1aXAL-91">
          <mxGeometry x="86" y="515" width="10" height="60" as="geometry" />
        </mxCell>
        <mxCell id="OFbl8fYpySPx44W1aXAL-95" value="enable_ok_btn" style="html=1;verticalAlign=bottom;endArrow=block;curved=0;rounded=0;" edge="1" parent="OFbl8fYpySPx44W1aXAL-91">
          <mxGeometry x="-0.4274" width="80" relative="1" as="geometry">
            <mxPoint x="91" y="515" as="sourcePoint" />
            <mxPoint x="90" y="535" as="targetPoint" />
            <Array as="points">
              <mxPoint x="131" y="515" />
              <mxPoint x="131" y="535" />
            </Array>
            <mxPoint as="offset" />
          </mxGeometry>
        </mxCell>
        <mxCell id="OFbl8fYpySPx44W1aXAL-96" value="" style="html=1;points=[[0,0,0,0,5],[0,1,0,0,-5],[1,0,0,0,5],[1,1,0,0,-5]];perimeter=orthogonalPerimeter;outlineConnect=0;targetShapes=umlLifeline;portConstraint=eastwest;newEdgeStyle={&quot;curved&quot;:0,&quot;rounded&quot;:0};" vertex="1" parent="OFbl8fYpySPx44W1aXAL-91">
          <mxGeometry x="85" y="585" width="10" height="355" as="geometry" />
        </mxCell>
        <mxCell id="OFbl8fYpySPx44W1aXAL-97" value="on_ok" style="html=1;verticalAlign=bottom;endArrow=block;curved=0;rounded=0;" edge="1" parent="OFbl8fYpySPx44W1aXAL-91">
          <mxGeometry x="0.1881" y="-10" width="80" relative="1" as="geometry">
            <mxPoint x="90" y="585" as="sourcePoint" />
            <mxPoint x="89" y="605" as="targetPoint" />
            <Array as="points">
              <mxPoint x="130" y="585" />
              <mxPoint x="130" y="605" />
            </Array>
            <mxPoint x="10" y="10" as="offset" />
          </mxGeometry>
        </mxCell>
        <mxCell id="OFbl8fYpySPx44W1aXAL-98" value="new()" style="html=1;verticalAlign=bottom;endArrow=block;curved=0;rounded=0;" edge="1" parent="1">
          <mxGeometry width="80" relative="1" as="geometry">
            <mxPoint x="2170" y="630" as="sourcePoint" />
            <mxPoint x="2374.5" y="630" as="targetPoint" />
            <Array as="points">
              <mxPoint x="2260" y="630" />
            </Array>
          </mxGeometry>
        </mxCell>
        <mxCell id="OFbl8fYpySPx44W1aXAL-99" value="add_student_controller:&lt;br&gt;Add_student_controller" style="shape=umlLifeline;perimeter=lifelinePerimeter;whiteSpace=wrap;html=1;container=1;dropTarget=0;collapsible=0;recursiveResize=0;outlineConnect=0;portConstraint=eastwest;newEdgeStyle={&quot;curved&quot;:0,&quot;rounded&quot;:0};" vertex="1" parent="1">
          <mxGeometry x="2500" y="520" width="170" height="940" as="geometry" />
        </mxCell>
        <mxCell id="OFbl8fYpySPx44W1aXAL-100" value="" style="html=1;points=[[0,0,0,0,5],[0,1,0,0,-5],[1,0,0,0,5],[1,1,0,0,-5]];perimeter=orthogonalPerimeter;outlineConnect=0;targetShapes=umlLifeline;portConstraint=eastwest;newEdgeStyle={&quot;curved&quot;:0,&quot;rounded&quot;:0};" vertex="1" parent="OFbl8fYpySPx44W1aXAL-99">
          <mxGeometry x="80" y="120" width="10" height="820" as="geometry" />
        </mxCell>
        <mxCell id="OFbl8fYpySPx44W1aXAL-101" value="" style="html=1;points=[[0,0,0,0,5],[0,1,0,0,-5],[1,0,0,0,5],[1,1,0,0,-5]];perimeter=orthogonalPerimeter;outlineConnect=0;targetShapes=umlLifeline;portConstraint=eastwest;newEdgeStyle={&quot;curved&quot;:0,&quot;rounded&quot;:0};" vertex="1" parent="OFbl8fYpySPx44W1aXAL-99">
          <mxGeometry x="85" y="625" width="10" height="80" as="geometry" />
        </mxCell>
        <mxCell id="OFbl8fYpySPx44W1aXAL-103" value="new()" style="html=1;verticalAlign=bottom;endArrow=block;curved=0;rounded=0;" edge="1" parent="1">
          <mxGeometry width="80" relative="1" as="geometry">
            <mxPoint x="2380" y="640" as="sourcePoint" />
            <mxPoint x="2584.5" y="640" as="targetPoint" />
          </mxGeometry>
        </mxCell>
        <mxCell id="OFbl8fYpySPx44W1aXAL-104" value="return" style="html=1;verticalAlign=bottom;endArrow=open;dashed=1;endSize=8;curved=0;rounded=0;" edge="1" parent="1">
          <mxGeometry relative="1" as="geometry">
            <mxPoint x="2580" y="660" as="sourcePoint" />
            <mxPoint x="2375.1" y="660" as="targetPoint" />
            <Array as="points">
              <mxPoint x="2440" y="660" />
            </Array>
          </mxGeometry>
        </mxCell>
        <mxCell id="OFbl8fYpySPx44W1aXAL-105" value="student_list_controller:&lt;br&gt;Student_list_controller" style="shape=umlLifeline;perimeter=lifelinePerimeter;whiteSpace=wrap;html=1;container=1;dropTarget=0;collapsible=0;recursiveResize=0;outlineConnect=0;portConstraint=eastwest;newEdgeStyle={&quot;curved&quot;:0,&quot;rounded&quot;:0};" vertex="1" parent="1">
          <mxGeometry x="2740" y="520" width="170" height="960" as="geometry" />
        </mxCell>
        <mxCell id="OFbl8fYpySPx44W1aXAL-107" value="" style="html=1;points=[[0,0,0,0,5],[0,1,0,0,-5],[1,0,0,0,5],[1,1,0,0,-5]];perimeter=orthogonalPerimeter;outlineConnect=0;targetShapes=umlLifeline;portConstraint=eastwest;newEdgeStyle={&quot;curved&quot;:0,&quot;rounded&quot;:0};" vertex="1" parent="OFbl8fYpySPx44W1aXAL-105">
          <mxGeometry x="80" y="670" width="10" height="250" as="geometry" />
        </mxCell>
        <mxCell id="OFbl8fYpySPx44W1aXAL-108" value="" style="html=1;points=[[0,0,0,0,5],[0,1,0,0,-5],[1,0,0,0,5],[1,1,0,0,-5]];perimeter=orthogonalPerimeter;outlineConnect=0;targetShapes=umlLifeline;portConstraint=eastwest;newEdgeStyle={&quot;curved&quot;:0,&quot;rounded&quot;:0};" vertex="1" parent="OFbl8fYpySPx44W1aXAL-105">
          <mxGeometry x="86" y="770" width="10" height="140" as="geometry" />
        </mxCell>
        <mxCell id="OFbl8fYpySPx44W1aXAL-109" value="data_list:&lt;br&gt;Data_list" style="shape=umlLifeline;perimeter=lifelinePerimeter;whiteSpace=wrap;html=1;container=1;dropTarget=0;collapsible=0;recursiveResize=0;outlineConnect=0;portConstraint=eastwest;newEdgeStyle={&quot;curved&quot;:0,&quot;rounded&quot;:0};" vertex="1" parent="1">
          <mxGeometry x="2980" y="520" width="170" height="1040" as="geometry" />
        </mxCell>
        <mxCell id="OFbl8fYpySPx44W1aXAL-111" value="" style="html=1;points=[[0,0,0,0,5],[0,1,0,0,-5],[1,0,0,0,5],[1,1,0,0,-5]];perimeter=orthogonalPerimeter;outlineConnect=0;targetShapes=umlLifeline;portConstraint=eastwest;newEdgeStyle={&quot;curved&quot;:0,&quot;rounded&quot;:0};" vertex="1" parent="OFbl8fYpySPx44W1aXAL-109">
          <mxGeometry x="80" y="850" width="10" height="160" as="geometry" />
        </mxCell>
        <mxCell id="OFbl8fYpySPx44W1aXAL-112" value=":DB_client" style="shape=umlLifeline;perimeter=lifelinePerimeter;whiteSpace=wrap;html=1;container=1;dropTarget=0;collapsible=0;recursiveResize=0;outlineConnect=0;portConstraint=eastwest;newEdgeStyle={&quot;curved&quot;:0,&quot;rounded&quot;:0};" vertex="1" parent="1">
          <mxGeometry x="3520" y="520" width="170" height="940" as="geometry" />
        </mxCell>
        <mxCell id="OFbl8fYpySPx44W1aXAL-114" value="students_list:&lt;br&gt;Students_list" style="shape=umlLifeline;perimeter=lifelinePerimeter;whiteSpace=wrap;html=1;container=1;dropTarget=0;collapsible=0;recursiveResize=0;outlineConnect=0;portConstraint=eastwest;newEdgeStyle={&quot;curved&quot;:0,&quot;rounded&quot;:0};" vertex="1" parent="1">
          <mxGeometry x="3260" y="520" width="170" height="980" as="geometry" />
        </mxCell>
        <mxCell id="OFbl8fYpySPx44W1aXAL-115" value="" style="html=1;points=[[0,0,0,0,5],[0,1,0,0,-5],[1,0,0,0,5],[1,1,0,0,-5]];perimeter=orthogonalPerimeter;outlineConnect=0;targetShapes=umlLifeline;portConstraint=eastwest;newEdgeStyle={&quot;curved&quot;:0,&quot;rounded&quot;:0};" vertex="1" parent="OFbl8fYpySPx44W1aXAL-114">
          <mxGeometry x="81" y="680" width="10" height="80" as="geometry" />
        </mxCell>
        <mxCell id="OFbl8fYpySPx44W1aXAL-116" value="" style="html=1;points=[[0,0,0,0,5],[0,1,0,0,-5],[1,0,0,0,5],[1,1,0,0,-5]];perimeter=orthogonalPerimeter;outlineConnect=0;targetShapes=umlLifeline;portConstraint=eastwest;newEdgeStyle={&quot;curved&quot;:0,&quot;rounded&quot;:0};" vertex="1" parent="OFbl8fYpySPx44W1aXAL-114">
          <mxGeometry x="81" y="810" width="10" height="70" as="geometry" />
        </mxCell>
        <mxCell id="OFbl8fYpySPx44W1aXAL-117" value="populate_fields()" style="html=1;verticalAlign=bottom;endArrow=block;curved=0;rounded=0;" edge="1" parent="1">
          <mxGeometry width="80" relative="1" as="geometry">
            <mxPoint x="2380" y="763" as="sourcePoint" />
            <mxPoint x="2585" y="763" as="targetPoint" />
          </mxGeometry>
        </mxCell>
        <mxCell id="OFbl8fYpySPx44W1aXAL-118" value="on_add" style="html=1;verticalAlign=bottom;endArrow=block;curved=0;rounded=0;" edge="1" parent="1">
          <mxGeometry x="-0.4274" width="80" relative="1" as="geometry">
            <mxPoint x="2170" y="600" as="sourcePoint" />
            <mxPoint x="2170" y="620" as="targetPoint" />
            <Array as="points">
              <mxPoint x="2210" y="600" />
              <mxPoint x="2210" y="620" />
            </Array>
            <mxPoint as="offset" />
          </mxGeometry>
        </mxCell>
        <mxCell id="OFbl8fYpySPx44W1aXAL-119" value="setup_form" style="html=1;verticalAlign=bottom;endArrow=block;curved=0;rounded=0;" edge="1" parent="1">
          <mxGeometry x="-0.4274" width="80" relative="1" as="geometry">
            <mxPoint x="2385" y="680" as="sourcePoint" />
            <mxPoint x="2380" y="700" as="targetPoint" />
            <Array as="points">
              <mxPoint x="2425" y="680" />
              <mxPoint x="2425" y="700" />
            </Array>
            <mxPoint as="offset" />
          </mxGeometry>
        </mxCell>
        <mxCell id="OFbl8fYpySPx44W1aXAL-120" value="" style="html=1;points=[[0,0,0,0,5],[0,1,0,0,-5],[1,0,0,0,5],[1,1,0,0,-5]];perimeter=orthogonalPerimeter;outlineConnect=0;targetShapes=umlLifeline;portConstraint=eastwest;newEdgeStyle={&quot;curved&quot;:0,&quot;rounded&quot;:0};" vertex="1" parent="1">
          <mxGeometry x="2376" y="722" width="10" height="25" as="geometry" />
        </mxCell>
        <mxCell id="OFbl8fYpySPx44W1aXAL-121" value="setup_buttons" style="html=1;verticalAlign=bottom;endArrow=block;curved=0;rounded=0;" edge="1" parent="1">
          <mxGeometry x="-0.4274" width="80" relative="1" as="geometry">
            <mxPoint x="2386" y="722" as="sourcePoint" />
            <mxPoint x="2381" y="742" as="targetPoint" />
            <Array as="points">
              <mxPoint x="2426" y="722" />
              <mxPoint x="2426" y="742" />
            </Array>
            <mxPoint as="offset" />
          </mxGeometry>
        </mxCell>
        <mxCell id="OFbl8fYpySPx44W1aXAL-122" value="Вводит поля (Фамилия, Имя, Отчество, Дата рождения)" style="html=1;verticalAlign=bottom;startArrow=oval;startFill=1;endArrow=block;startSize=8;curved=0;rounded=0;" edge="1" parent="1">
          <mxGeometry x="-0.1669" width="60" relative="1" as="geometry">
            <mxPoint x="1955.25" y="1035" as="sourcePoint" />
            <mxPoint x="2374.75" y="1035" as="targetPoint" />
            <mxPoint as="offset" />
          </mxGeometry>
        </mxCell>
        <mxCell id="OFbl8fYpySPx44W1aXAL-123" value="valid_data?" style="html=1;verticalAlign=bottom;endArrow=block;curved=0;rounded=0;" edge="1" parent="1">
          <mxGeometry width="80" relative="1" as="geometry">
            <mxPoint x="2380" y="1065" as="sourcePoint" />
            <mxPoint x="2584.5" y="1065" as="targetPoint" />
          </mxGeometry>
        </mxCell>
        <mxCell id="OFbl8fYpySPx44W1aXAL-124" value="return" style="html=1;verticalAlign=bottom;endArrow=open;dashed=1;endSize=8;curved=0;rounded=0;" edge="1" parent="1">
          <mxGeometry relative="1" as="geometry">
            <mxPoint x="2580" y="1081" as="sourcePoint" />
            <mxPoint x="2386" y="1081" as="targetPoint" />
          </mxGeometry>
        </mxCell>
        <mxCell id="OFbl8fYpySPx44W1aXAL-125" value="Нажимает &quot;ОК&quot;" style="html=1;verticalAlign=bottom;startArrow=oval;startFill=1;endArrow=block;startSize=8;curved=0;rounded=0;" edge="1" parent="1">
          <mxGeometry x="-0.1669" width="60" relative="1" as="geometry">
            <mxPoint x="1955.25" y="1105" as="sourcePoint" />
            <mxPoint x="2374.75" y="1105" as="targetPoint" />
            <mxPoint as="offset" />
          </mxGeometry>
        </mxCell>
        <mxCell id="OFbl8fYpySPx44W1aXAL-126" value="save_student" style="html=1;verticalAlign=bottom;endArrow=block;curved=0;rounded=0;" edge="1" parent="1">
          <mxGeometry width="80" relative="1" as="geometry">
            <mxPoint x="2380" y="1145" as="sourcePoint" />
            <mxPoint x="2584.5" y="1145" as="targetPoint" />
          </mxGeometry>
        </mxCell>
        <mxCell id="OFbl8fYpySPx44W1aXAL-140" value="fields=()" style="html=1;verticalAlign=bottom;endArrow=block;curved=0;rounded=0;exitX=0;exitY=1;exitDx=0;exitDy=-5;exitPerimeter=0;" edge="1" parent="1">
          <mxGeometry width="80" relative="1" as="geometry">
            <mxPoint x="2584" y="795" as="sourcePoint" />
            <mxPoint x="2380" y="795" as="targetPoint" />
          </mxGeometry>
        </mxCell>
        <mxCell id="OFbl8fYpySPx44W1aXAL-141" value="new_student" style="html=1;verticalAlign=bottom;endArrow=block;curved=0;rounded=0;" edge="1" parent="1">
          <mxGeometry x="-0.4274" width="80" relative="1" as="geometry">
            <mxPoint x="2593" y="1145" as="sourcePoint" />
            <mxPoint x="2592" y="1165" as="targetPoint" />
            <Array as="points">
              <mxPoint x="2633" y="1145" />
              <mxPoint x="2633" y="1165" />
            </Array>
            <mxPoint as="offset" />
          </mxGeometry>
        </mxCell>
        <mxCell id="OFbl8fYpySPx44W1aXAL-142" value="add_student" style="html=1;verticalAlign=bottom;endArrow=block;curved=0;rounded=0;" edge="1" parent="1" target="OFbl8fYpySPx44W1aXAL-105">
          <mxGeometry width="80" relative="1" as="geometry">
            <mxPoint x="2594" y="1190" as="sourcePoint" />
            <mxPoint x="2674" y="1190" as="targetPoint" />
          </mxGeometry>
        </mxCell>
        <mxCell id="OFbl8fYpySPx44W1aXAL-143" value="add_student" style="html=1;verticalAlign=bottom;endArrow=block;curved=0;rounded=0;" edge="1" parent="1" target="OFbl8fYpySPx44W1aXAL-114">
          <mxGeometry width="80" relative="1" as="geometry">
            <mxPoint x="2830" y="1210" as="sourcePoint" />
            <mxPoint x="3060" y="1210" as="targetPoint" />
          </mxGeometry>
        </mxCell>
        <mxCell id="OFbl8fYpySPx44W1aXAL-144" value="query()" style="html=1;verticalAlign=bottom;endArrow=block;curved=0;rounded=0;" edge="1" parent="1" source="OFbl8fYpySPx44W1aXAL-146" target="OFbl8fYpySPx44W1aXAL-112">
          <mxGeometry y="126" width="80" relative="1" as="geometry">
            <mxPoint x="3350" y="1230" as="sourcePoint" />
            <mxPoint x="3430" y="1230" as="targetPoint" />
            <mxPoint x="-125" y="-19" as="offset" />
          </mxGeometry>
        </mxCell>
        <mxCell id="OFbl8fYpySPx44W1aXAL-145" value="" style="html=1;verticalAlign=bottom;endArrow=block;curved=0;rounded=0;" edge="1" parent="1" target="OFbl8fYpySPx44W1aXAL-146">
          <mxGeometry width="80" relative="1" as="geometry">
            <mxPoint x="3350" y="1230" as="sourcePoint" />
            <mxPoint x="3604" y="1230" as="targetPoint" />
          </mxGeometry>
        </mxCell>
        <mxCell id="OFbl8fYpySPx44W1aXAL-146" value="" style="html=1;points=[[0,0,0,0,5],[0,1,0,0,-5],[1,0,0,0,5],[1,1,0,0,-5]];perimeter=orthogonalPerimeter;outlineConnect=0;targetShapes=umlLifeline;portConstraint=eastwest;newEdgeStyle={&quot;curved&quot;:0,&quot;rounded&quot;:0};" vertex="1" parent="1">
          <mxGeometry x="3601" y="1219" width="10" height="41" as="geometry" />
        </mxCell>
        <mxCell id="OFbl8fYpySPx44W1aXAL-147" value="return" style="html=1;verticalAlign=bottom;endArrow=open;dashed=1;endSize=8;curved=0;rounded=0;" edge="1" parent="1" target="OFbl8fYpySPx44W1aXAL-114">
          <mxGeometry relative="1" as="geometry">
            <mxPoint x="3600" y="1250" as="sourcePoint" />
            <mxPoint x="3520" y="1250" as="targetPoint" />
          </mxGeometry>
        </mxCell>
        <mxCell id="OFbl8fYpySPx44W1aXAL-148" value="return" style="html=1;verticalAlign=bottom;endArrow=open;dashed=1;endSize=8;curved=0;rounded=0;" edge="1" parent="1" target="OFbl8fYpySPx44W1aXAL-105">
          <mxGeometry relative="1" as="geometry">
            <mxPoint x="3340" y="1270" as="sourcePoint" />
            <mxPoint x="3260" y="1270" as="targetPoint" />
          </mxGeometry>
        </mxCell>
        <mxCell id="OFbl8fYpySPx44W1aXAL-149" value="refresh_data" style="html=1;verticalAlign=bottom;endArrow=block;curved=0;rounded=0;" edge="1" parent="1">
          <mxGeometry x="-0.0099" y="9" width="80" relative="1" as="geometry">
            <mxPoint x="2831" y="1290" as="sourcePoint" />
            <mxPoint x="2830" y="1310" as="targetPoint" />
            <Array as="points">
              <mxPoint x="2871" y="1290" />
              <mxPoint x="2871" y="1310" />
            </Array>
            <mxPoint as="offset" />
          </mxGeometry>
        </mxCell>
        <mxCell id="OFbl8fYpySPx44W1aXAL-150" value="get_k_n_students" style="html=1;verticalAlign=bottom;endArrow=block;curved=0;rounded=0;" edge="1" parent="1" target="OFbl8fYpySPx44W1aXAL-114">
          <mxGeometry width="80" relative="1" as="geometry">
            <mxPoint x="2839" y="1340" as="sourcePoint" />
            <mxPoint x="2919" y="1340" as="targetPoint" />
          </mxGeometry>
        </mxCell>
        <mxCell id="OFbl8fYpySPx44W1aXAL-151" value="" style="html=1;verticalAlign=bottom;endArrow=block;curved=0;rounded=0;" edge="1" parent="1" target="OFbl8fYpySPx44W1aXAL-152">
          <mxGeometry width="80" relative="1" as="geometry">
            <mxPoint x="3350" y="1350" as="sourcePoint" />
            <mxPoint x="3604" y="1350" as="targetPoint" />
          </mxGeometry>
        </mxCell>
        <mxCell id="OFbl8fYpySPx44W1aXAL-152" value="" style="html=1;points=[[0,0,0,0,5],[0,1,0,0,-5],[1,0,0,0,5],[1,1,0,0,-5]];perimeter=orthogonalPerimeter;outlineConnect=0;targetShapes=umlLifeline;portConstraint=eastwest;newEdgeStyle={&quot;curved&quot;:0,&quot;rounded&quot;:0};" vertex="1" parent="1">
          <mxGeometry x="3601" y="1339" width="10" height="41" as="geometry" />
        </mxCell>
        <mxCell id="OFbl8fYpySPx44W1aXAL-153" value="return" style="html=1;verticalAlign=bottom;endArrow=open;dashed=1;endSize=8;curved=0;rounded=0;" edge="1" parent="1">
          <mxGeometry relative="1" as="geometry">
            <mxPoint x="3600" y="1370" as="sourcePoint" />
            <mxPoint x="3345" y="1370" as="targetPoint" />
          </mxGeometry>
        </mxCell>
        <mxCell id="OFbl8fYpySPx44W1aXAL-154" value="return" style="html=1;verticalAlign=bottom;endArrow=open;dashed=1;endSize=8;curved=0;rounded=0;" edge="1" parent="1" target="OFbl8fYpySPx44W1aXAL-108">
          <mxGeometry relative="1" as="geometry">
            <mxPoint x="3340" y="1390" as="sourcePoint" />
            <mxPoint x="2840" y="1390" as="targetPoint" />
          </mxGeometry>
        </mxCell>
        <mxCell id="OFbl8fYpySPx44W1aXAL-155" value="notify" style="html=1;verticalAlign=bottom;endArrow=block;curved=0;rounded=0;" edge="1" parent="1" target="OFbl8fYpySPx44W1aXAL-109">
          <mxGeometry width="80" relative="1" as="geometry">
            <mxPoint x="2840" y="1420" as="sourcePoint" />
            <mxPoint x="2910" y="1420" as="targetPoint" />
          </mxGeometry>
        </mxCell>
        <mxCell id="OFbl8fYpySPx44W1aXAL-156" value="set_table_params" style="html=1;verticalAlign=bottom;endArrow=block;curved=0;rounded=0;" edge="1" parent="1">
          <mxGeometry width="80" relative="1" as="geometry">
            <mxPoint x="3064.5" y="1476" as="sourcePoint" />
            <mxPoint x="2170" y="1476" as="targetPoint" />
          </mxGeometry>
        </mxCell>
        <mxCell id="OFbl8fYpySPx44W1aXAL-157" value="set_table_data" style="html=1;verticalAlign=bottom;endArrow=block;curved=0;rounded=0;" edge="1" parent="1">
          <mxGeometry width="80" relative="1" as="geometry">
            <mxPoint x="3064.5" y="1508" as="sourcePoint" />
            <mxPoint x="2170" y="1508" as="targetPoint" />
          </mxGeometry>
        </mxCell>
        <mxCell id="OFbl8fYpySPx44W1aXAL-158" value="Отображение новых данных" style="html=1;verticalAlign=bottom;endArrow=block;curved=0;rounded=0;exitX=0;exitY=1;exitDx=0;exitDy=-5;exitPerimeter=0;" edge="1" parent="1">
          <mxGeometry width="80" relative="1" as="geometry">
            <mxPoint x="2160" y="1528" as="sourcePoint" />
            <mxPoint x="1949.810344827586" y="1528" as="targetPoint" />
          </mxGeometry>
        </mxCell>
        <mxCell id="OFbl8fYpySPx44W1aXAL-159" value="return" style="html=1;verticalAlign=bottom;endArrow=open;dashed=1;endSize=8;curved=0;rounded=0;" edge="1" parent="1">
          <mxGeometry relative="1" as="geometry">
            <mxPoint x="2820" y="1440" as="sourcePoint" />
            <mxPoint x="2590" y="1440" as="targetPoint" />
          </mxGeometry>
        </mxCell>
        <mxCell id="OFbl8fYpySPx44W1aXAL-160" value="close()" style="html=1;verticalAlign=bottom;endArrow=block;curved=0;rounded=0;" edge="1" parent="1">
          <mxGeometry width="80" relative="1" as="geometry">
            <mxPoint x="2580" y="1450" as="sourcePoint" />
            <mxPoint x="2385" y="1450" as="targetPoint" />
          </mxGeometry>
        </mxCell>
        <mxCell id="OFbl8fYpySPx44W1aXAL-161" value="&lt;p style=&quot;line-height: 220%;&quot;&gt;&lt;font style=&quot;font-size: 72px;&quot;&gt;Изменение&lt;/font&gt;&lt;/p&gt;" style="text;html=1;align=center;verticalAlign=middle;resizable=0;points=[];autosize=1;strokeColor=none;fillColor=none;" vertex="1" parent="1">
          <mxGeometry x="290" y="373" width="400" height="80" as="geometry" />
        </mxCell>
        <mxCell id="OFbl8fYpySPx44W1aXAL-162" value="&lt;p style=&quot;line-height: 220%;&quot;&gt;&lt;font style=&quot;font-size: 72px;&quot;&gt;Добавление&lt;/font&gt;&lt;/p&gt;" style="text;html=1;align=center;verticalAlign=middle;resizable=0;points=[];autosize=1;strokeColor=none;fillColor=none;" vertex="1" parent="1">
          <mxGeometry x="2525" y="360" width="430" height="80" as="geometry" />
        </mxCell>
        <mxCell id="OFbl8fYpySPx44W1aXAL-163" value="student_list_view:&lt;br&gt;Student_list_view" style="shape=umlLifeline;perimeter=lifelinePerimeter;whiteSpace=wrap;html=1;container=1;dropTarget=0;collapsible=0;recursiveResize=0;outlineConnect=0;portConstraint=eastwest;newEdgeStyle={&quot;curved&quot;:0,&quot;rounded&quot;:0};" vertex="1" parent="1">
          <mxGeometry x="190" y="2277" width="170" height="1020" as="geometry" />
        </mxCell>
        <mxCell id="OFbl8fYpySPx44W1aXAL-164" value="" style="html=1;points=[[0,0,0,0,5],[0,1,0,0,-5],[1,0,0,0,5],[1,1,0,0,-5]];perimeter=orthogonalPerimeter;outlineConnect=0;targetShapes=umlLifeline;portConstraint=eastwest;newEdgeStyle={&quot;curved&quot;:0,&quot;rounded&quot;:0};" vertex="1" parent="OFbl8fYpySPx44W1aXAL-163">
          <mxGeometry x="80" y="70" width="10" height="950" as="geometry" />
        </mxCell>
        <mxCell id="OFbl8fYpySPx44W1aXAL-165" value="" style="html=1;points=[[0,0,0,0,5],[0,1,0,0,-5],[1,0,0,0,5],[1,1,0,0,-5]];perimeter=orthogonalPerimeter;outlineConnect=0;targetShapes=umlLifeline;portConstraint=eastwest;newEdgeStyle={&quot;curved&quot;:0,&quot;rounded&quot;:0};" vertex="1" parent="OFbl8fYpySPx44W1aXAL-163">
          <mxGeometry x="85" y="80" width="10" height="30" as="geometry" />
        </mxCell>
        <mxCell id="OFbl8fYpySPx44W1aXAL-166" value="" style="shape=umlLifeline;perimeter=lifelinePerimeter;whiteSpace=wrap;html=1;container=1;dropTarget=0;collapsible=0;recursiveResize=0;outlineConnect=0;portConstraint=eastwest;newEdgeStyle={&quot;curved&quot;:0,&quot;rounded&quot;:0};participant=umlActor;" vertex="1" parent="1">
          <mxGeometry x="50" y="2277" width="20" height="1050" as="geometry" />
        </mxCell>
        <mxCell id="OFbl8fYpySPx44W1aXAL-167" value="" style="html=1;points=[[0,0,0,0,5],[0,1,0,0,-5],[1,0,0,0,5],[1,1,0,0,-5]];perimeter=orthogonalPerimeter;outlineConnect=0;targetShapes=umlLifeline;portConstraint=eastwest;newEdgeStyle={&quot;curved&quot;:0,&quot;rounded&quot;:0};" vertex="1" parent="OFbl8fYpySPx44W1aXAL-166">
          <mxGeometry x="5" y="60" width="10" height="990" as="geometry" />
        </mxCell>
        <mxCell id="OFbl8fYpySPx44W1aXAL-168" value="Нажимает&lt;br&gt;&quot;Изменить Git&quot;" style="html=1;verticalAlign=bottom;startArrow=oval;startFill=1;endArrow=block;startSize=8;curved=0;rounded=0;" edge="1" parent="1" target="OFbl8fYpySPx44W1aXAL-163">
          <mxGeometry x="-0.4406" y="10" width="60" relative="1" as="geometry">
            <mxPoint x="60" y="2347" as="sourcePoint" />
            <mxPoint x="120" y="2347" as="targetPoint" />
            <mxPoint as="offset" />
          </mxGeometry>
        </mxCell>
        <mxCell id="OFbl8fYpySPx44W1aXAL-169" value=":Edit_student_modal" style="shape=umlLifeline;perimeter=lifelinePerimeter;whiteSpace=wrap;html=1;container=1;dropTarget=0;collapsible=0;recursiveResize=0;outlineConnect=0;portConstraint=eastwest;newEdgeStyle={&quot;curved&quot;:0,&quot;rounded&quot;:0};" vertex="1" parent="1">
          <mxGeometry x="400" y="2277" width="170" height="940" as="geometry" />
        </mxCell>
        <mxCell id="OFbl8fYpySPx44W1aXAL-170" value="" style="html=1;points=[[0,0,0,0,5],[0,1,0,0,-5],[1,0,0,0,5],[1,1,0,0,-5]];perimeter=orthogonalPerimeter;outlineConnect=0;targetShapes=umlLifeline;portConstraint=eastwest;newEdgeStyle={&quot;curved&quot;:0,&quot;rounded&quot;:0};" vertex="1" parent="OFbl8fYpySPx44W1aXAL-169">
          <mxGeometry x="80" y="110" width="10" height="830" as="geometry" />
        </mxCell>
        <mxCell id="OFbl8fYpySPx44W1aXAL-171" value="" style="html=1;points=[[0,0,0,0,5],[0,1,0,0,-5],[1,0,0,0,5],[1,1,0,0,-5]];perimeter=orthogonalPerimeter;outlineConnect=0;targetShapes=umlLifeline;portConstraint=eastwest;newEdgeStyle={&quot;curved&quot;:0,&quot;rounded&quot;:0};" vertex="1" parent="OFbl8fYpySPx44W1aXAL-169">
          <mxGeometry x="85" y="160" width="10" height="25" as="geometry" />
        </mxCell>
        <mxCell id="OFbl8fYpySPx44W1aXAL-172" value="" style="html=1;points=[[0,0,0,0,5],[0,1,0,0,-5],[1,0,0,0,5],[1,1,0,0,-5]];perimeter=orthogonalPerimeter;outlineConnect=0;targetShapes=umlLifeline;portConstraint=eastwest;newEdgeStyle={&quot;curved&quot;:0,&quot;rounded&quot;:0};" vertex="1" parent="OFbl8fYpySPx44W1aXAL-169">
          <mxGeometry x="86" y="515" width="10" height="60" as="geometry" />
        </mxCell>
        <mxCell id="OFbl8fYpySPx44W1aXAL-173" value="enable_ok_btn" style="html=1;verticalAlign=bottom;endArrow=block;curved=0;rounded=0;" edge="1" parent="OFbl8fYpySPx44W1aXAL-169">
          <mxGeometry x="-0.4274" width="80" relative="1" as="geometry">
            <mxPoint x="91" y="515" as="sourcePoint" />
            <mxPoint x="90" y="535" as="targetPoint" />
            <Array as="points">
              <mxPoint x="131" y="515" />
              <mxPoint x="131" y="535" />
            </Array>
            <mxPoint as="offset" />
          </mxGeometry>
        </mxCell>
        <mxCell id="OFbl8fYpySPx44W1aXAL-174" value="" style="html=1;points=[[0,0,0,0,5],[0,1,0,0,-5],[1,0,0,0,5],[1,1,0,0,-5]];perimeter=orthogonalPerimeter;outlineConnect=0;targetShapes=umlLifeline;portConstraint=eastwest;newEdgeStyle={&quot;curved&quot;:0,&quot;rounded&quot;:0};" vertex="1" parent="OFbl8fYpySPx44W1aXAL-169">
          <mxGeometry x="85" y="585" width="10" height="355" as="geometry" />
        </mxCell>
        <mxCell id="OFbl8fYpySPx44W1aXAL-175" value="on_ok" style="html=1;verticalAlign=bottom;endArrow=block;curved=0;rounded=0;" edge="1" parent="OFbl8fYpySPx44W1aXAL-169">
          <mxGeometry x="0.1881" y="-10" width="80" relative="1" as="geometry">
            <mxPoint x="90" y="585" as="sourcePoint" />
            <mxPoint x="89" y="605" as="targetPoint" />
            <Array as="points">
              <mxPoint x="130" y="585" />
              <mxPoint x="130" y="605" />
            </Array>
            <mxPoint x="10" y="10" as="offset" />
          </mxGeometry>
        </mxCell>
        <mxCell id="OFbl8fYpySPx44W1aXAL-176" value="new()" style="html=1;verticalAlign=bottom;endArrow=block;curved=0;rounded=0;" edge="1" parent="1">
          <mxGeometry width="80" relative="1" as="geometry">
            <mxPoint x="280" y="2387" as="sourcePoint" />
            <mxPoint x="484.5" y="2387" as="targetPoint" />
            <Array as="points">
              <mxPoint x="370" y="2387" />
            </Array>
          </mxGeometry>
        </mxCell>
        <mxCell id="OFbl8fYpySPx44W1aXAL-177" value="edit_git_controller:&lt;br&gt;Edit_git_controller" style="shape=umlLifeline;perimeter=lifelinePerimeter;whiteSpace=wrap;html=1;container=1;dropTarget=0;collapsible=0;recursiveResize=0;outlineConnect=0;portConstraint=eastwest;newEdgeStyle={&quot;curved&quot;:0,&quot;rounded&quot;:0};" vertex="1" parent="1">
          <mxGeometry x="610" y="2277" width="170" height="940" as="geometry" />
        </mxCell>
        <mxCell id="OFbl8fYpySPx44W1aXAL-178" value="" style="html=1;points=[[0,0,0,0,5],[0,1,0,0,-5],[1,0,0,0,5],[1,1,0,0,-5]];perimeter=orthogonalPerimeter;outlineConnect=0;targetShapes=umlLifeline;portConstraint=eastwest;newEdgeStyle={&quot;curved&quot;:0,&quot;rounded&quot;:0};" vertex="1" parent="OFbl8fYpySPx44W1aXAL-177">
          <mxGeometry x="80" y="120" width="10" height="820" as="geometry" />
        </mxCell>
        <mxCell id="OFbl8fYpySPx44W1aXAL-179" value="" style="html=1;points=[[0,0,0,0,5],[0,1,0,0,-5],[1,0,0,0,5],[1,1,0,0,-5]];perimeter=orthogonalPerimeter;outlineConnect=0;targetShapes=umlLifeline;portConstraint=eastwest;newEdgeStyle={&quot;curved&quot;:0,&quot;rounded&quot;:0};" vertex="1" parent="OFbl8fYpySPx44W1aXAL-177">
          <mxGeometry x="85" y="625" width="10" height="80" as="geometry" />
        </mxCell>
        <mxCell id="OFbl8fYpySPx44W1aXAL-180" value="" style="html=1;points=[[0,0,0,0,5],[0,1,0,0,-5],[1,0,0,0,5],[1,1,0,0,-5]];perimeter=orthogonalPerimeter;outlineConnect=0;targetShapes=umlLifeline;portConstraint=eastwest;newEdgeStyle={&quot;curved&quot;:0,&quot;rounded&quot;:0};" vertex="1" parent="OFbl8fYpySPx44W1aXAL-177">
          <mxGeometry x="85" y="242" width="10" height="168" as="geometry" />
        </mxCell>
        <mxCell id="OFbl8fYpySPx44W1aXAL-181" value="new()" style="html=1;verticalAlign=bottom;endArrow=block;curved=0;rounded=0;" edge="1" parent="1">
          <mxGeometry width="80" relative="1" as="geometry">
            <mxPoint x="490" y="2397" as="sourcePoint" />
            <mxPoint x="694.5" y="2397" as="targetPoint" />
          </mxGeometry>
        </mxCell>
        <mxCell id="OFbl8fYpySPx44W1aXAL-182" value="return" style="html=1;verticalAlign=bottom;endArrow=open;dashed=1;endSize=8;curved=0;rounded=0;" edge="1" parent="1">
          <mxGeometry relative="1" as="geometry">
            <mxPoint x="690" y="2417" as="sourcePoint" />
            <mxPoint x="485.0999999999999" y="2417" as="targetPoint" />
            <Array as="points">
              <mxPoint x="550" y="2417" />
            </Array>
          </mxGeometry>
        </mxCell>
        <mxCell id="OFbl8fYpySPx44W1aXAL-183" value="student_list_controller:&lt;br&gt;Student_list_controller" style="shape=umlLifeline;perimeter=lifelinePerimeter;whiteSpace=wrap;html=1;container=1;dropTarget=0;collapsible=0;recursiveResize=0;outlineConnect=0;portConstraint=eastwest;newEdgeStyle={&quot;curved&quot;:0,&quot;rounded&quot;:0};" vertex="1" parent="1">
          <mxGeometry x="850" y="2277" width="170" height="960" as="geometry" />
        </mxCell>
        <mxCell id="OFbl8fYpySPx44W1aXAL-184" value="" style="html=1;points=[[0,0,0,0,5],[0,1,0,0,-5],[1,0,0,0,5],[1,1,0,0,-5]];perimeter=orthogonalPerimeter;outlineConnect=0;targetShapes=umlLifeline;portConstraint=eastwest;newEdgeStyle={&quot;curved&quot;:0,&quot;rounded&quot;:0};" vertex="1" parent="OFbl8fYpySPx44W1aXAL-183">
          <mxGeometry x="80" y="280" width="10" height="120" as="geometry" />
        </mxCell>
        <mxCell id="OFbl8fYpySPx44W1aXAL-185" value="" style="html=1;points=[[0,0,0,0,5],[0,1,0,0,-5],[1,0,0,0,5],[1,1,0,0,-5]];perimeter=orthogonalPerimeter;outlineConnect=0;targetShapes=umlLifeline;portConstraint=eastwest;newEdgeStyle={&quot;curved&quot;:0,&quot;rounded&quot;:0};" vertex="1" parent="OFbl8fYpySPx44W1aXAL-183">
          <mxGeometry x="80" y="670" width="10" height="250" as="geometry" />
        </mxCell>
        <mxCell id="OFbl8fYpySPx44W1aXAL-186" value="" style="html=1;points=[[0,0,0,0,5],[0,1,0,0,-5],[1,0,0,0,5],[1,1,0,0,-5]];perimeter=orthogonalPerimeter;outlineConnect=0;targetShapes=umlLifeline;portConstraint=eastwest;newEdgeStyle={&quot;curved&quot;:0,&quot;rounded&quot;:0};" vertex="1" parent="OFbl8fYpySPx44W1aXAL-183">
          <mxGeometry x="86" y="770" width="10" height="140" as="geometry" />
        </mxCell>
        <mxCell id="OFbl8fYpySPx44W1aXAL-187" value="data_list:&lt;br&gt;Data_list" style="shape=umlLifeline;perimeter=lifelinePerimeter;whiteSpace=wrap;html=1;container=1;dropTarget=0;collapsible=0;recursiveResize=0;outlineConnect=0;portConstraint=eastwest;newEdgeStyle={&quot;curved&quot;:0,&quot;rounded&quot;:0};" vertex="1" parent="1">
          <mxGeometry x="1090" y="2277" width="170" height="1040" as="geometry" />
        </mxCell>
        <mxCell id="OFbl8fYpySPx44W1aXAL-188" value="" style="html=1;points=[[0,0,0,0,5],[0,1,0,0,-5],[1,0,0,0,5],[1,1,0,0,-5]];perimeter=orthogonalPerimeter;outlineConnect=0;targetShapes=umlLifeline;portConstraint=eastwest;newEdgeStyle={&quot;curved&quot;:0,&quot;rounded&quot;:0};" vertex="1" parent="OFbl8fYpySPx44W1aXAL-187">
          <mxGeometry x="80" y="280" width="10" height="30" as="geometry" />
        </mxCell>
        <mxCell id="OFbl8fYpySPx44W1aXAL-189" value="" style="html=1;points=[[0,0,0,0,5],[0,1,0,0,-5],[1,0,0,0,5],[1,1,0,0,-5]];perimeter=orthogonalPerimeter;outlineConnect=0;targetShapes=umlLifeline;portConstraint=eastwest;newEdgeStyle={&quot;curved&quot;:0,&quot;rounded&quot;:0};" vertex="1" parent="OFbl8fYpySPx44W1aXAL-187">
          <mxGeometry x="80" y="850" width="10" height="160" as="geometry" />
        </mxCell>
        <mxCell id="OFbl8fYpySPx44W1aXAL-190" value=":DB_client" style="shape=umlLifeline;perimeter=lifelinePerimeter;whiteSpace=wrap;html=1;container=1;dropTarget=0;collapsible=0;recursiveResize=0;outlineConnect=0;portConstraint=eastwest;newEdgeStyle={&quot;curved&quot;:0,&quot;rounded&quot;:0};" vertex="1" parent="1">
          <mxGeometry x="1630" y="2277" width="170" height="940" as="geometry" />
        </mxCell>
        <mxCell id="OFbl8fYpySPx44W1aXAL-191" value="" style="html=1;points=[[0,0,0,0,5],[0,1,0,0,-5],[1,0,0,0,5],[1,1,0,0,-5]];perimeter=orthogonalPerimeter;outlineConnect=0;targetShapes=umlLifeline;portConstraint=eastwest;newEdgeStyle={&quot;curved&quot;:0,&quot;rounded&quot;:0};" vertex="1" parent="OFbl8fYpySPx44W1aXAL-190">
          <mxGeometry x="80" y="329" width="10" height="41" as="geometry" />
        </mxCell>
        <mxCell id="OFbl8fYpySPx44W1aXAL-192" value="students_list:&lt;br&gt;Students_list" style="shape=umlLifeline;perimeter=lifelinePerimeter;whiteSpace=wrap;html=1;container=1;dropTarget=0;collapsible=0;recursiveResize=0;outlineConnect=0;portConstraint=eastwest;newEdgeStyle={&quot;curved&quot;:0,&quot;rounded&quot;:0};" vertex="1" parent="1">
          <mxGeometry x="1370" y="2277" width="170" height="980" as="geometry" />
        </mxCell>
        <mxCell id="OFbl8fYpySPx44W1aXAL-193" value="" style="html=1;points=[[0,0,0,0,5],[0,1,0,0,-5],[1,0,0,0,5],[1,1,0,0,-5]];perimeter=orthogonalPerimeter;outlineConnect=0;targetShapes=umlLifeline;portConstraint=eastwest;newEdgeStyle={&quot;curved&quot;:0,&quot;rounded&quot;:0};" vertex="1" parent="OFbl8fYpySPx44W1aXAL-192">
          <mxGeometry x="81" y="680" width="10" height="80" as="geometry" />
        </mxCell>
        <mxCell id="OFbl8fYpySPx44W1aXAL-194" value="" style="html=1;points=[[0,0,0,0,5],[0,1,0,0,-5],[1,0,0,0,5],[1,1,0,0,-5]];perimeter=orthogonalPerimeter;outlineConnect=0;targetShapes=umlLifeline;portConstraint=eastwest;newEdgeStyle={&quot;curved&quot;:0,&quot;rounded&quot;:0};" vertex="1" parent="OFbl8fYpySPx44W1aXAL-192">
          <mxGeometry x="81" y="810" width="10" height="70" as="geometry" />
        </mxCell>
        <mxCell id="OFbl8fYpySPx44W1aXAL-195" value="populate_fields()" style="html=1;verticalAlign=bottom;endArrow=block;curved=0;rounded=0;" edge="1" parent="1">
          <mxGeometry width="80" relative="1" as="geometry">
            <mxPoint x="490" y="2520" as="sourcePoint" />
            <mxPoint x="695" y="2520" as="targetPoint" />
          </mxGeometry>
        </mxCell>
        <mxCell id="OFbl8fYpySPx44W1aXAL-196" value="on_edit" style="html=1;verticalAlign=bottom;endArrow=block;curved=0;rounded=0;" edge="1" parent="1">
          <mxGeometry x="-0.4274" width="80" relative="1" as="geometry">
            <mxPoint x="280" y="2357" as="sourcePoint" />
            <mxPoint x="280" y="2377" as="targetPoint" />
            <Array as="points">
              <mxPoint x="320" y="2357" />
              <mxPoint x="320" y="2377" />
            </Array>
            <mxPoint as="offset" />
          </mxGeometry>
        </mxCell>
        <mxCell id="OFbl8fYpySPx44W1aXAL-197" value="setup_form" style="html=1;verticalAlign=bottom;endArrow=block;curved=0;rounded=0;" edge="1" parent="1">
          <mxGeometry x="-0.4274" width="80" relative="1" as="geometry">
            <mxPoint x="495" y="2437" as="sourcePoint" />
            <mxPoint x="490" y="2457" as="targetPoint" />
            <Array as="points">
              <mxPoint x="535" y="2437" />
              <mxPoint x="535" y="2457" />
            </Array>
            <mxPoint as="offset" />
          </mxGeometry>
        </mxCell>
        <mxCell id="OFbl8fYpySPx44W1aXAL-198" value="" style="html=1;points=[[0,0,0,0,5],[0,1,0,0,-5],[1,0,0,0,5],[1,1,0,0,-5]];perimeter=orthogonalPerimeter;outlineConnect=0;targetShapes=umlLifeline;portConstraint=eastwest;newEdgeStyle={&quot;curved&quot;:0,&quot;rounded&quot;:0};" vertex="1" parent="1">
          <mxGeometry x="486" y="2479" width="10" height="25" as="geometry" />
        </mxCell>
        <mxCell id="OFbl8fYpySPx44W1aXAL-199" value="setup_buttons" style="html=1;verticalAlign=bottom;endArrow=block;curved=0;rounded=0;" edge="1" parent="1">
          <mxGeometry x="-0.4274" width="80" relative="1" as="geometry">
            <mxPoint x="496" y="2479" as="sourcePoint" />
            <mxPoint x="491" y="2499" as="targetPoint" />
            <Array as="points">
              <mxPoint x="536" y="2479" />
              <mxPoint x="536" y="2499" />
            </Array>
            <mxPoint as="offset" />
          </mxGeometry>
        </mxCell>
        <mxCell id="OFbl8fYpySPx44W1aXAL-200" value="Вводит поле Git" style="html=1;verticalAlign=bottom;startArrow=oval;startFill=1;endArrow=block;startSize=8;curved=0;rounded=0;" edge="1" parent="1">
          <mxGeometry x="-0.1669" width="60" relative="1" as="geometry">
            <mxPoint x="65.25" y="2792" as="sourcePoint" />
            <mxPoint x="484.7500000000002" y="2792" as="targetPoint" />
            <mxPoint as="offset" />
          </mxGeometry>
        </mxCell>
        <mxCell id="OFbl8fYpySPx44W1aXAL-201" value="valid_data?" style="html=1;verticalAlign=bottom;endArrow=block;curved=0;rounded=0;" edge="1" parent="1">
          <mxGeometry width="80" relative="1" as="geometry">
            <mxPoint x="490" y="2822" as="sourcePoint" />
            <mxPoint x="694.5000000000002" y="2822" as="targetPoint" />
          </mxGeometry>
        </mxCell>
        <mxCell id="OFbl8fYpySPx44W1aXAL-202" value="return" style="html=1;verticalAlign=bottom;endArrow=open;dashed=1;endSize=8;curved=0;rounded=0;" edge="1" parent="1">
          <mxGeometry relative="1" as="geometry">
            <mxPoint x="690" y="2838" as="sourcePoint" />
            <mxPoint x="496" y="2838" as="targetPoint" />
          </mxGeometry>
        </mxCell>
        <mxCell id="OFbl8fYpySPx44W1aXAL-203" value="Нажимает &quot;ОК&quot;" style="html=1;verticalAlign=bottom;startArrow=oval;startFill=1;endArrow=block;startSize=8;curved=0;rounded=0;" edge="1" parent="1">
          <mxGeometry x="-0.1669" width="60" relative="1" as="geometry">
            <mxPoint x="65.25" y="2862" as="sourcePoint" />
            <mxPoint x="484.7500000000002" y="2862" as="targetPoint" />
            <mxPoint as="offset" />
          </mxGeometry>
        </mxCell>
        <mxCell id="OFbl8fYpySPx44W1aXAL-204" value="save_student" style="html=1;verticalAlign=bottom;endArrow=block;curved=0;rounded=0;" edge="1" parent="1">
          <mxGeometry width="80" relative="1" as="geometry">
            <mxPoint x="490" y="2902" as="sourcePoint" />
            <mxPoint x="694.5000000000002" y="2902" as="targetPoint" />
          </mxGeometry>
        </mxCell>
        <mxCell id="OFbl8fYpySPx44W1aXAL-205" value="get_student" style="html=1;verticalAlign=bottom;endArrow=block;curved=0;rounded=0;" edge="1" parent="1">
          <mxGeometry x="-0.4274" width="80" relative="1" as="geometry">
            <mxPoint x="704" y="2519" as="sourcePoint" />
            <mxPoint x="699" y="2539" as="targetPoint" />
            <Array as="points">
              <mxPoint x="744" y="2519" />
              <mxPoint x="744" y="2539" />
            </Array>
            <mxPoint as="offset" />
          </mxGeometry>
        </mxCell>
        <mxCell id="OFbl8fYpySPx44W1aXAL-206" value="get_selected" style="html=1;verticalAlign=bottom;endArrow=block;curved=0;rounded=0;" edge="1" parent="1" target="OFbl8fYpySPx44W1aXAL-183">
          <mxGeometry width="80" relative="1" as="geometry">
            <mxPoint x="704" y="2557" as="sourcePoint" />
            <mxPoint x="784" y="2557" as="targetPoint" />
          </mxGeometry>
        </mxCell>
        <mxCell id="OFbl8fYpySPx44W1aXAL-207" value="return" style="html=1;verticalAlign=bottom;endArrow=open;dashed=1;endSize=8;curved=0;rounded=0;" edge="1" parent="1">
          <mxGeometry relative="1" as="geometry">
            <mxPoint x="930" y="2577" as="sourcePoint" />
            <mxPoint x="700" y="2577" as="targetPoint" />
          </mxGeometry>
        </mxCell>
        <mxCell id="OFbl8fYpySPx44W1aXAL-208" value="get_student" style="html=1;verticalAlign=bottom;endArrow=block;curved=0;rounded=0;" edge="1" parent="1">
          <mxGeometry width="80" relative="1" as="geometry">
            <mxPoint x="700" y="2594" as="sourcePoint" />
            <mxPoint x="931" y="2594" as="targetPoint" />
          </mxGeometry>
        </mxCell>
        <mxCell id="OFbl8fYpySPx44W1aXAL-209" value="get_selected" style="html=1;verticalAlign=bottom;endArrow=block;curved=0;rounded=0;" edge="1" parent="1">
          <mxGeometry width="80" relative="1" as="geometry">
            <mxPoint x="940" y="2564" as="sourcePoint" />
            <mxPoint x="1171" y="2564" as="targetPoint" />
          </mxGeometry>
        </mxCell>
        <mxCell id="OFbl8fYpySPx44W1aXAL-210" value="return" style="html=1;verticalAlign=bottom;endArrow=open;dashed=1;endSize=8;curved=0;rounded=0;" edge="1" parent="1">
          <mxGeometry x="0.0435" y="15" relative="1" as="geometry">
            <mxPoint x="1170" y="2572" as="sourcePoint" />
            <mxPoint x="940" y="2572" as="targetPoint" />
            <mxPoint as="offset" />
          </mxGeometry>
        </mxCell>
        <mxCell id="OFbl8fYpySPx44W1aXAL-211" value="" style="html=1;verticalAlign=bottom;endArrow=block;curved=0;rounded=0;" edge="1" parent="1" target="OFbl8fYpySPx44W1aXAL-213">
          <mxGeometry width="80" relative="1" as="geometry">
            <mxPoint x="940" y="2607" as="sourcePoint" />
            <mxPoint x="1455" y="2607" as="targetPoint" />
          </mxGeometry>
        </mxCell>
        <mxCell id="OFbl8fYpySPx44W1aXAL-212" value="get_student()" style="edgeLabel;html=1;align=center;verticalAlign=middle;resizable=0;points=[];" vertex="1" connectable="0" parent="OFbl8fYpySPx44W1aXAL-211">
          <mxGeometry x="-0.0359" y="-1" relative="1" as="geometry">
            <mxPoint as="offset" />
          </mxGeometry>
        </mxCell>
        <mxCell id="OFbl8fYpySPx44W1aXAL-213" value="" style="html=1;points=[[0,0,0,0,5],[0,1,0,0,-5],[1,0,0,0,5],[1,1,0,0,-5]];perimeter=orthogonalPerimeter;outlineConnect=0;targetShapes=umlLifeline;portConstraint=eastwest;newEdgeStyle={&quot;curved&quot;:0,&quot;rounded&quot;:0};" vertex="1" parent="1">
          <mxGeometry x="1450" y="2606" width="10" height="61" as="geometry" />
        </mxCell>
        <mxCell id="OFbl8fYpySPx44W1aXAL-214" value="query()" style="html=1;verticalAlign=bottom;endArrow=block;curved=0;rounded=0;" edge="1" parent="1" target="OFbl8fYpySPx44W1aXAL-190">
          <mxGeometry width="80" relative="1" as="geometry">
            <mxPoint x="1460" y="2617" as="sourcePoint" />
            <mxPoint x="1540" y="2617" as="targetPoint" />
          </mxGeometry>
        </mxCell>
        <mxCell id="OFbl8fYpySPx44W1aXAL-215" value="return" style="html=1;verticalAlign=bottom;endArrow=open;dashed=1;endSize=8;curved=0;rounded=0;" edge="1" parent="1" source="OFbl8fYpySPx44W1aXAL-191">
          <mxGeometry relative="1" as="geometry">
            <mxPoint x="1809" y="2635.5" as="sourcePoint" />
            <mxPoint x="1459" y="2635.5" as="targetPoint" />
          </mxGeometry>
        </mxCell>
        <mxCell id="OFbl8fYpySPx44W1aXAL-216" value="return" style="html=1;verticalAlign=bottom;endArrow=open;dashed=1;endSize=8;curved=0;rounded=0;" edge="1" parent="1" target="OFbl8fYpySPx44W1aXAL-183">
          <mxGeometry relative="1" as="geometry">
            <mxPoint x="1450" y="2657" as="sourcePoint" />
            <mxPoint x="1370" y="2657" as="targetPoint" />
          </mxGeometry>
        </mxCell>
        <mxCell id="OFbl8fYpySPx44W1aXAL-217" value="return" style="html=1;verticalAlign=bottom;endArrow=open;dashed=1;endSize=8;curved=0;rounded=0;" edge="1" parent="1">
          <mxGeometry relative="1" as="geometry">
            <mxPoint x="930" y="2667" as="sourcePoint" />
            <mxPoint x="700" y="2667" as="targetPoint" />
          </mxGeometry>
        </mxCell>
        <mxCell id="OFbl8fYpySPx44W1aXAL-218" value="fields=()" style="html=1;verticalAlign=bottom;endArrow=block;curved=0;rounded=0;exitX=0;exitY=1;exitDx=0;exitDy=-5;exitPerimeter=0;" edge="1" parent="1">
          <mxGeometry width="80" relative="1" as="geometry">
            <mxPoint x="694" y="2687" as="sourcePoint" />
            <mxPoint x="490" y="2687" as="targetPoint" />
          </mxGeometry>
        </mxCell>
        <mxCell id="OFbl8fYpySPx44W1aXAL-219" value="new_student" style="html=1;verticalAlign=bottom;endArrow=block;curved=0;rounded=0;" edge="1" parent="1">
          <mxGeometry x="-0.4274" width="80" relative="1" as="geometry">
            <mxPoint x="703" y="2902" as="sourcePoint" />
            <mxPoint x="702" y="2922" as="targetPoint" />
            <Array as="points">
              <mxPoint x="743" y="2902" />
              <mxPoint x="743" y="2922" />
            </Array>
            <mxPoint as="offset" />
          </mxGeometry>
        </mxCell>
        <mxCell id="OFbl8fYpySPx44W1aXAL-220" value="replace_student" style="html=1;verticalAlign=bottom;endArrow=block;curved=0;rounded=0;" edge="1" parent="1" target="OFbl8fYpySPx44W1aXAL-183">
          <mxGeometry width="80" relative="1" as="geometry">
            <mxPoint x="704" y="2947" as="sourcePoint" />
            <mxPoint x="784" y="2947" as="targetPoint" />
          </mxGeometry>
        </mxCell>
        <mxCell id="OFbl8fYpySPx44W1aXAL-221" value="replace_student" style="html=1;verticalAlign=bottom;endArrow=block;curved=0;rounded=0;" edge="1" parent="1" target="OFbl8fYpySPx44W1aXAL-192">
          <mxGeometry width="80" relative="1" as="geometry">
            <mxPoint x="940" y="2967" as="sourcePoint" />
            <mxPoint x="1170" y="2967" as="targetPoint" />
          </mxGeometry>
        </mxCell>
        <mxCell id="OFbl8fYpySPx44W1aXAL-222" value="query()" style="html=1;verticalAlign=bottom;endArrow=block;curved=0;rounded=0;" edge="1" parent="1" source="OFbl8fYpySPx44W1aXAL-224" target="OFbl8fYpySPx44W1aXAL-190">
          <mxGeometry y="126" width="80" relative="1" as="geometry">
            <mxPoint x="1460" y="2987" as="sourcePoint" />
            <mxPoint x="1540" y="2987" as="targetPoint" />
            <mxPoint x="-125" y="-19" as="offset" />
          </mxGeometry>
        </mxCell>
        <mxCell id="OFbl8fYpySPx44W1aXAL-223" value="" style="html=1;verticalAlign=bottom;endArrow=block;curved=0;rounded=0;" edge="1" parent="1" target="OFbl8fYpySPx44W1aXAL-224">
          <mxGeometry width="80" relative="1" as="geometry">
            <mxPoint x="1460" y="2987" as="sourcePoint" />
            <mxPoint x="1714" y="2987" as="targetPoint" />
          </mxGeometry>
        </mxCell>
        <mxCell id="OFbl8fYpySPx44W1aXAL-224" value="" style="html=1;points=[[0,0,0,0,5],[0,1,0,0,-5],[1,0,0,0,5],[1,1,0,0,-5]];perimeter=orthogonalPerimeter;outlineConnect=0;targetShapes=umlLifeline;portConstraint=eastwest;newEdgeStyle={&quot;curved&quot;:0,&quot;rounded&quot;:0};" vertex="1" parent="1">
          <mxGeometry x="1711" y="2976" width="10" height="41" as="geometry" />
        </mxCell>
        <mxCell id="OFbl8fYpySPx44W1aXAL-225" value="return" style="html=1;verticalAlign=bottom;endArrow=open;dashed=1;endSize=8;curved=0;rounded=0;" edge="1" parent="1" target="OFbl8fYpySPx44W1aXAL-192">
          <mxGeometry relative="1" as="geometry">
            <mxPoint x="1710" y="3007" as="sourcePoint" />
            <mxPoint x="1630" y="3007" as="targetPoint" />
          </mxGeometry>
        </mxCell>
        <mxCell id="OFbl8fYpySPx44W1aXAL-226" value="return" style="html=1;verticalAlign=bottom;endArrow=open;dashed=1;endSize=8;curved=0;rounded=0;" edge="1" parent="1" target="OFbl8fYpySPx44W1aXAL-183">
          <mxGeometry relative="1" as="geometry">
            <mxPoint x="1450" y="3027" as="sourcePoint" />
            <mxPoint x="1370" y="3027" as="targetPoint" />
          </mxGeometry>
        </mxCell>
        <mxCell id="OFbl8fYpySPx44W1aXAL-227" value="refresh_data" style="html=1;verticalAlign=bottom;endArrow=block;curved=0;rounded=0;" edge="1" parent="1">
          <mxGeometry x="-0.0099" y="9" width="80" relative="1" as="geometry">
            <mxPoint x="941" y="3047" as="sourcePoint" />
            <mxPoint x="940" y="3067" as="targetPoint" />
            <Array as="points">
              <mxPoint x="981" y="3047" />
              <mxPoint x="981" y="3067" />
            </Array>
            <mxPoint as="offset" />
          </mxGeometry>
        </mxCell>
        <mxCell id="OFbl8fYpySPx44W1aXAL-228" value="get_k_n_students" style="html=1;verticalAlign=bottom;endArrow=block;curved=0;rounded=0;" edge="1" parent="1" target="OFbl8fYpySPx44W1aXAL-192">
          <mxGeometry width="80" relative="1" as="geometry">
            <mxPoint x="949" y="3097" as="sourcePoint" />
            <mxPoint x="1029" y="3097" as="targetPoint" />
          </mxGeometry>
        </mxCell>
        <mxCell id="OFbl8fYpySPx44W1aXAL-229" value="" style="html=1;verticalAlign=bottom;endArrow=block;curved=0;rounded=0;" edge="1" parent="1" target="OFbl8fYpySPx44W1aXAL-230">
          <mxGeometry width="80" relative="1" as="geometry">
            <mxPoint x="1460" y="3107" as="sourcePoint" />
            <mxPoint x="1714" y="3107" as="targetPoint" />
          </mxGeometry>
        </mxCell>
        <mxCell id="OFbl8fYpySPx44W1aXAL-230" value="" style="html=1;points=[[0,0,0,0,5],[0,1,0,0,-5],[1,0,0,0,5],[1,1,0,0,-5]];perimeter=orthogonalPerimeter;outlineConnect=0;targetShapes=umlLifeline;portConstraint=eastwest;newEdgeStyle={&quot;curved&quot;:0,&quot;rounded&quot;:0};" vertex="1" parent="1">
          <mxGeometry x="1711" y="3096" width="10" height="41" as="geometry" />
        </mxCell>
        <mxCell id="OFbl8fYpySPx44W1aXAL-231" value="return" style="html=1;verticalAlign=bottom;endArrow=open;dashed=1;endSize=8;curved=0;rounded=0;" edge="1" parent="1">
          <mxGeometry relative="1" as="geometry">
            <mxPoint x="1710" y="3127" as="sourcePoint" />
            <mxPoint x="1455" y="3127" as="targetPoint" />
          </mxGeometry>
        </mxCell>
        <mxCell id="OFbl8fYpySPx44W1aXAL-232" value="return" style="html=1;verticalAlign=bottom;endArrow=open;dashed=1;endSize=8;curved=0;rounded=0;" edge="1" parent="1" target="OFbl8fYpySPx44W1aXAL-186">
          <mxGeometry relative="1" as="geometry">
            <mxPoint x="1450" y="3147" as="sourcePoint" />
            <mxPoint x="950" y="3147" as="targetPoint" />
          </mxGeometry>
        </mxCell>
        <mxCell id="OFbl8fYpySPx44W1aXAL-233" value="notify" style="html=1;verticalAlign=bottom;endArrow=block;curved=0;rounded=0;" edge="1" parent="1" target="OFbl8fYpySPx44W1aXAL-187">
          <mxGeometry width="80" relative="1" as="geometry">
            <mxPoint x="950" y="3177" as="sourcePoint" />
            <mxPoint x="1020" y="3177" as="targetPoint" />
          </mxGeometry>
        </mxCell>
        <mxCell id="OFbl8fYpySPx44W1aXAL-234" value="set_table_params" style="html=1;verticalAlign=bottom;endArrow=block;curved=0;rounded=0;" edge="1" parent="1">
          <mxGeometry width="80" relative="1" as="geometry">
            <mxPoint x="1174.5" y="3233" as="sourcePoint" />
            <mxPoint x="280" y="3233" as="targetPoint" />
          </mxGeometry>
        </mxCell>
        <mxCell id="OFbl8fYpySPx44W1aXAL-235" value="set_table_data" style="html=1;verticalAlign=bottom;endArrow=block;curved=0;rounded=0;" edge="1" parent="1">
          <mxGeometry width="80" relative="1" as="geometry">
            <mxPoint x="1174.5" y="3265" as="sourcePoint" />
            <mxPoint x="280" y="3265" as="targetPoint" />
          </mxGeometry>
        </mxCell>
        <mxCell id="OFbl8fYpySPx44W1aXAL-236" value="Отображение новых данных" style="html=1;verticalAlign=bottom;endArrow=block;curved=0;rounded=0;exitX=0;exitY=1;exitDx=0;exitDy=-5;exitPerimeter=0;" edge="1" parent="1">
          <mxGeometry width="80" relative="1" as="geometry">
            <mxPoint x="270" y="3285" as="sourcePoint" />
            <mxPoint x="59.81034482758605" y="3285" as="targetPoint" />
          </mxGeometry>
        </mxCell>
        <mxCell id="OFbl8fYpySPx44W1aXAL-237" value="return" style="html=1;verticalAlign=bottom;endArrow=open;dashed=1;endSize=8;curved=0;rounded=0;" edge="1" parent="1">
          <mxGeometry relative="1" as="geometry">
            <mxPoint x="930" y="3197" as="sourcePoint" />
            <mxPoint x="700" y="3197" as="targetPoint" />
          </mxGeometry>
        </mxCell>
        <mxCell id="OFbl8fYpySPx44W1aXAL-238" value="close()" style="html=1;verticalAlign=bottom;endArrow=block;curved=0;rounded=0;" edge="1" parent="1">
          <mxGeometry width="80" relative="1" as="geometry">
            <mxPoint x="689.9999999999998" y="3207" as="sourcePoint" />
            <mxPoint x="494.9999999999998" y="3207" as="targetPoint" />
          </mxGeometry>
        </mxCell>
        <mxCell id="OFbl8fYpySPx44W1aXAL-239" value="&lt;p style=&quot;line-height: 220%;&quot;&gt;&lt;font style=&quot;font-size: 72px;&quot;&gt;Изменение Git&lt;/font&gt;&lt;/p&gt;" style="text;html=1;align=center;verticalAlign=middle;resizable=0;points=[];autosize=1;strokeColor=none;fillColor=none;" vertex="1" parent="1">
          <mxGeometry x="245" y="2130" width="510" height="80" as="geometry" />
        </mxCell>
        <mxCell id="OFbl8fYpySPx44W1aXAL-240" value="student_list_view:&lt;br&gt;Student_list_view" style="shape=umlLifeline;perimeter=lifelinePerimeter;whiteSpace=wrap;html=1;container=1;dropTarget=0;collapsible=0;recursiveResize=0;outlineConnect=0;portConstraint=eastwest;newEdgeStyle={&quot;curved&quot;:0,&quot;rounded&quot;:0};" vertex="1" parent="1">
          <mxGeometry x="2340" y="2267" width="170" height="1020" as="geometry" />
        </mxCell>
        <mxCell id="OFbl8fYpySPx44W1aXAL-241" value="" style="html=1;points=[[0,0,0,0,5],[0,1,0,0,-5],[1,0,0,0,5],[1,1,0,0,-5]];perimeter=orthogonalPerimeter;outlineConnect=0;targetShapes=umlLifeline;portConstraint=eastwest;newEdgeStyle={&quot;curved&quot;:0,&quot;rounded&quot;:0};" vertex="1" parent="OFbl8fYpySPx44W1aXAL-240">
          <mxGeometry x="80" y="70" width="10" height="950" as="geometry" />
        </mxCell>
        <mxCell id="OFbl8fYpySPx44W1aXAL-242" value="" style="html=1;points=[[0,0,0,0,5],[0,1,0,0,-5],[1,0,0,0,5],[1,1,0,0,-5]];perimeter=orthogonalPerimeter;outlineConnect=0;targetShapes=umlLifeline;portConstraint=eastwest;newEdgeStyle={&quot;curved&quot;:0,&quot;rounded&quot;:0};" vertex="1" parent="OFbl8fYpySPx44W1aXAL-240">
          <mxGeometry x="85" y="80" width="10" height="30" as="geometry" />
        </mxCell>
        <mxCell id="OFbl8fYpySPx44W1aXAL-243" value="" style="shape=umlLifeline;perimeter=lifelinePerimeter;whiteSpace=wrap;html=1;container=1;dropTarget=0;collapsible=0;recursiveResize=0;outlineConnect=0;portConstraint=eastwest;newEdgeStyle={&quot;curved&quot;:0,&quot;rounded&quot;:0};participant=umlActor;" vertex="1" parent="1">
          <mxGeometry x="2200" y="2267" width="20" height="1050" as="geometry" />
        </mxCell>
        <mxCell id="OFbl8fYpySPx44W1aXAL-244" value="" style="html=1;points=[[0,0,0,0,5],[0,1,0,0,-5],[1,0,0,0,5],[1,1,0,0,-5]];perimeter=orthogonalPerimeter;outlineConnect=0;targetShapes=umlLifeline;portConstraint=eastwest;newEdgeStyle={&quot;curved&quot;:0,&quot;rounded&quot;:0};" vertex="1" parent="OFbl8fYpySPx44W1aXAL-243">
          <mxGeometry x="5" y="60" width="10" height="990" as="geometry" />
        </mxCell>
        <mxCell id="OFbl8fYpySPx44W1aXAL-245" value="Нажимает&lt;br&gt;&quot;Изменить контакты&quot;" style="html=1;verticalAlign=bottom;startArrow=oval;startFill=1;endArrow=block;startSize=8;curved=0;rounded=0;" edge="1" parent="1" target="OFbl8fYpySPx44W1aXAL-240">
          <mxGeometry x="-0.4406" y="10" width="60" relative="1" as="geometry">
            <mxPoint x="2210" y="2337" as="sourcePoint" />
            <mxPoint x="2270" y="2337" as="targetPoint" />
            <mxPoint as="offset" />
          </mxGeometry>
        </mxCell>
        <mxCell id="OFbl8fYpySPx44W1aXAL-246" value=":Edit_student_modal" style="shape=umlLifeline;perimeter=lifelinePerimeter;whiteSpace=wrap;html=1;container=1;dropTarget=0;collapsible=0;recursiveResize=0;outlineConnect=0;portConstraint=eastwest;newEdgeStyle={&quot;curved&quot;:0,&quot;rounded&quot;:0};" vertex="1" parent="1">
          <mxGeometry x="2550" y="2267" width="170" height="940" as="geometry" />
        </mxCell>
        <mxCell id="OFbl8fYpySPx44W1aXAL-247" value="" style="html=1;points=[[0,0,0,0,5],[0,1,0,0,-5],[1,0,0,0,5],[1,1,0,0,-5]];perimeter=orthogonalPerimeter;outlineConnect=0;targetShapes=umlLifeline;portConstraint=eastwest;newEdgeStyle={&quot;curved&quot;:0,&quot;rounded&quot;:0};" vertex="1" parent="OFbl8fYpySPx44W1aXAL-246">
          <mxGeometry x="80" y="110" width="10" height="830" as="geometry" />
        </mxCell>
        <mxCell id="OFbl8fYpySPx44W1aXAL-248" value="" style="html=1;points=[[0,0,0,0,5],[0,1,0,0,-5],[1,0,0,0,5],[1,1,0,0,-5]];perimeter=orthogonalPerimeter;outlineConnect=0;targetShapes=umlLifeline;portConstraint=eastwest;newEdgeStyle={&quot;curved&quot;:0,&quot;rounded&quot;:0};" vertex="1" parent="OFbl8fYpySPx44W1aXAL-246">
          <mxGeometry x="85" y="160" width="10" height="25" as="geometry" />
        </mxCell>
        <mxCell id="OFbl8fYpySPx44W1aXAL-249" value="" style="html=1;points=[[0,0,0,0,5],[0,1,0,0,-5],[1,0,0,0,5],[1,1,0,0,-5]];perimeter=orthogonalPerimeter;outlineConnect=0;targetShapes=umlLifeline;portConstraint=eastwest;newEdgeStyle={&quot;curved&quot;:0,&quot;rounded&quot;:0};" vertex="1" parent="OFbl8fYpySPx44W1aXAL-246">
          <mxGeometry x="86" y="515" width="10" height="60" as="geometry" />
        </mxCell>
        <mxCell id="OFbl8fYpySPx44W1aXAL-250" value="enable_ok_btn" style="html=1;verticalAlign=bottom;endArrow=block;curved=0;rounded=0;" edge="1" parent="OFbl8fYpySPx44W1aXAL-246">
          <mxGeometry x="-0.4274" width="80" relative="1" as="geometry">
            <mxPoint x="91" y="515" as="sourcePoint" />
            <mxPoint x="90" y="535" as="targetPoint" />
            <Array as="points">
              <mxPoint x="131" y="515" />
              <mxPoint x="131" y="535" />
            </Array>
            <mxPoint as="offset" />
          </mxGeometry>
        </mxCell>
        <mxCell id="OFbl8fYpySPx44W1aXAL-251" value="" style="html=1;points=[[0,0,0,0,5],[0,1,0,0,-5],[1,0,0,0,5],[1,1,0,0,-5]];perimeter=orthogonalPerimeter;outlineConnect=0;targetShapes=umlLifeline;portConstraint=eastwest;newEdgeStyle={&quot;curved&quot;:0,&quot;rounded&quot;:0};" vertex="1" parent="OFbl8fYpySPx44W1aXAL-246">
          <mxGeometry x="85" y="585" width="10" height="355" as="geometry" />
        </mxCell>
        <mxCell id="OFbl8fYpySPx44W1aXAL-252" value="on_ok" style="html=1;verticalAlign=bottom;endArrow=block;curved=0;rounded=0;" edge="1" parent="OFbl8fYpySPx44W1aXAL-246">
          <mxGeometry x="0.1881" y="-10" width="80" relative="1" as="geometry">
            <mxPoint x="90" y="585" as="sourcePoint" />
            <mxPoint x="89" y="605" as="targetPoint" />
            <Array as="points">
              <mxPoint x="130" y="585" />
              <mxPoint x="130" y="605" />
            </Array>
            <mxPoint x="10" y="10" as="offset" />
          </mxGeometry>
        </mxCell>
        <mxCell id="OFbl8fYpySPx44W1aXAL-253" value="new()" style="html=1;verticalAlign=bottom;endArrow=block;curved=0;rounded=0;" edge="1" parent="1">
          <mxGeometry width="80" relative="1" as="geometry">
            <mxPoint x="2430" y="2377" as="sourcePoint" />
            <mxPoint x="2634.5" y="2377" as="targetPoint" />
            <Array as="points">
              <mxPoint x="2520" y="2377" />
            </Array>
          </mxGeometry>
        </mxCell>
        <mxCell id="OFbl8fYpySPx44W1aXAL-254" value="edit_contacts_controller:&lt;br&gt;Edit_contacts_controller" style="shape=umlLifeline;perimeter=lifelinePerimeter;whiteSpace=wrap;html=1;container=1;dropTarget=0;collapsible=0;recursiveResize=0;outlineConnect=0;portConstraint=eastwest;newEdgeStyle={&quot;curved&quot;:0,&quot;rounded&quot;:0};" vertex="1" parent="1">
          <mxGeometry x="2760" y="2267" width="170" height="940" as="geometry" />
        </mxCell>
        <mxCell id="OFbl8fYpySPx44W1aXAL-255" value="" style="html=1;points=[[0,0,0,0,5],[0,1,0,0,-5],[1,0,0,0,5],[1,1,0,0,-5]];perimeter=orthogonalPerimeter;outlineConnect=0;targetShapes=umlLifeline;portConstraint=eastwest;newEdgeStyle={&quot;curved&quot;:0,&quot;rounded&quot;:0};" vertex="1" parent="OFbl8fYpySPx44W1aXAL-254">
          <mxGeometry x="80" y="120" width="10" height="820" as="geometry" />
        </mxCell>
        <mxCell id="OFbl8fYpySPx44W1aXAL-256" value="" style="html=1;points=[[0,0,0,0,5],[0,1,0,0,-5],[1,0,0,0,5],[1,1,0,0,-5]];perimeter=orthogonalPerimeter;outlineConnect=0;targetShapes=umlLifeline;portConstraint=eastwest;newEdgeStyle={&quot;curved&quot;:0,&quot;rounded&quot;:0};" vertex="1" parent="OFbl8fYpySPx44W1aXAL-254">
          <mxGeometry x="85" y="625" width="10" height="80" as="geometry" />
        </mxCell>
        <mxCell id="OFbl8fYpySPx44W1aXAL-257" value="" style="html=1;points=[[0,0,0,0,5],[0,1,0,0,-5],[1,0,0,0,5],[1,1,0,0,-5]];perimeter=orthogonalPerimeter;outlineConnect=0;targetShapes=umlLifeline;portConstraint=eastwest;newEdgeStyle={&quot;curved&quot;:0,&quot;rounded&quot;:0};" vertex="1" parent="OFbl8fYpySPx44W1aXAL-254">
          <mxGeometry x="85" y="242" width="10" height="168" as="geometry" />
        </mxCell>
        <mxCell id="OFbl8fYpySPx44W1aXAL-258" value="new()" style="html=1;verticalAlign=bottom;endArrow=block;curved=0;rounded=0;" edge="1" parent="1">
          <mxGeometry width="80" relative="1" as="geometry">
            <mxPoint x="2640" y="2387" as="sourcePoint" />
            <mxPoint x="2844.5" y="2387" as="targetPoint" />
          </mxGeometry>
        </mxCell>
        <mxCell id="OFbl8fYpySPx44W1aXAL-259" value="return" style="html=1;verticalAlign=bottom;endArrow=open;dashed=1;endSize=8;curved=0;rounded=0;" edge="1" parent="1">
          <mxGeometry relative="1" as="geometry">
            <mxPoint x="2840" y="2407" as="sourcePoint" />
            <mxPoint x="2635.1" y="2407" as="targetPoint" />
            <Array as="points">
              <mxPoint x="2700" y="2407" />
            </Array>
          </mxGeometry>
        </mxCell>
        <mxCell id="OFbl8fYpySPx44W1aXAL-260" value="student_list_controller:&lt;br&gt;Student_list_controller" style="shape=umlLifeline;perimeter=lifelinePerimeter;whiteSpace=wrap;html=1;container=1;dropTarget=0;collapsible=0;recursiveResize=0;outlineConnect=0;portConstraint=eastwest;newEdgeStyle={&quot;curved&quot;:0,&quot;rounded&quot;:0};" vertex="1" parent="1">
          <mxGeometry x="3000" y="2267" width="170" height="960" as="geometry" />
        </mxCell>
        <mxCell id="OFbl8fYpySPx44W1aXAL-261" value="" style="html=1;points=[[0,0,0,0,5],[0,1,0,0,-5],[1,0,0,0,5],[1,1,0,0,-5]];perimeter=orthogonalPerimeter;outlineConnect=0;targetShapes=umlLifeline;portConstraint=eastwest;newEdgeStyle={&quot;curved&quot;:0,&quot;rounded&quot;:0};" vertex="1" parent="OFbl8fYpySPx44W1aXAL-260">
          <mxGeometry x="80" y="280" width="10" height="120" as="geometry" />
        </mxCell>
        <mxCell id="OFbl8fYpySPx44W1aXAL-262" value="" style="html=1;points=[[0,0,0,0,5],[0,1,0,0,-5],[1,0,0,0,5],[1,1,0,0,-5]];perimeter=orthogonalPerimeter;outlineConnect=0;targetShapes=umlLifeline;portConstraint=eastwest;newEdgeStyle={&quot;curved&quot;:0,&quot;rounded&quot;:0};" vertex="1" parent="OFbl8fYpySPx44W1aXAL-260">
          <mxGeometry x="80" y="670" width="10" height="250" as="geometry" />
        </mxCell>
        <mxCell id="OFbl8fYpySPx44W1aXAL-263" value="" style="html=1;points=[[0,0,0,0,5],[0,1,0,0,-5],[1,0,0,0,5],[1,1,0,0,-5]];perimeter=orthogonalPerimeter;outlineConnect=0;targetShapes=umlLifeline;portConstraint=eastwest;newEdgeStyle={&quot;curved&quot;:0,&quot;rounded&quot;:0};" vertex="1" parent="OFbl8fYpySPx44W1aXAL-260">
          <mxGeometry x="86" y="770" width="10" height="140" as="geometry" />
        </mxCell>
        <mxCell id="OFbl8fYpySPx44W1aXAL-264" value="data_list:&lt;br&gt;Data_list" style="shape=umlLifeline;perimeter=lifelinePerimeter;whiteSpace=wrap;html=1;container=1;dropTarget=0;collapsible=0;recursiveResize=0;outlineConnect=0;portConstraint=eastwest;newEdgeStyle={&quot;curved&quot;:0,&quot;rounded&quot;:0};" vertex="1" parent="1">
          <mxGeometry x="3240" y="2267" width="170" height="1040" as="geometry" />
        </mxCell>
        <mxCell id="OFbl8fYpySPx44W1aXAL-265" value="" style="html=1;points=[[0,0,0,0,5],[0,1,0,0,-5],[1,0,0,0,5],[1,1,0,0,-5]];perimeter=orthogonalPerimeter;outlineConnect=0;targetShapes=umlLifeline;portConstraint=eastwest;newEdgeStyle={&quot;curved&quot;:0,&quot;rounded&quot;:0};" vertex="1" parent="OFbl8fYpySPx44W1aXAL-264">
          <mxGeometry x="80" y="280" width="10" height="30" as="geometry" />
        </mxCell>
        <mxCell id="OFbl8fYpySPx44W1aXAL-266" value="" style="html=1;points=[[0,0,0,0,5],[0,1,0,0,-5],[1,0,0,0,5],[1,1,0,0,-5]];perimeter=orthogonalPerimeter;outlineConnect=0;targetShapes=umlLifeline;portConstraint=eastwest;newEdgeStyle={&quot;curved&quot;:0,&quot;rounded&quot;:0};" vertex="1" parent="OFbl8fYpySPx44W1aXAL-264">
          <mxGeometry x="80" y="850" width="10" height="160" as="geometry" />
        </mxCell>
        <mxCell id="OFbl8fYpySPx44W1aXAL-267" value=":DB_client" style="shape=umlLifeline;perimeter=lifelinePerimeter;whiteSpace=wrap;html=1;container=1;dropTarget=0;collapsible=0;recursiveResize=0;outlineConnect=0;portConstraint=eastwest;newEdgeStyle={&quot;curved&quot;:0,&quot;rounded&quot;:0};" vertex="1" parent="1">
          <mxGeometry x="3780" y="2267" width="170" height="940" as="geometry" />
        </mxCell>
        <mxCell id="OFbl8fYpySPx44W1aXAL-268" value="" style="html=1;points=[[0,0,0,0,5],[0,1,0,0,-5],[1,0,0,0,5],[1,1,0,0,-5]];perimeter=orthogonalPerimeter;outlineConnect=0;targetShapes=umlLifeline;portConstraint=eastwest;newEdgeStyle={&quot;curved&quot;:0,&quot;rounded&quot;:0};" vertex="1" parent="OFbl8fYpySPx44W1aXAL-267">
          <mxGeometry x="80" y="329" width="10" height="41" as="geometry" />
        </mxCell>
        <mxCell id="OFbl8fYpySPx44W1aXAL-269" value="students_list:&lt;br&gt;Students_list" style="shape=umlLifeline;perimeter=lifelinePerimeter;whiteSpace=wrap;html=1;container=1;dropTarget=0;collapsible=0;recursiveResize=0;outlineConnect=0;portConstraint=eastwest;newEdgeStyle={&quot;curved&quot;:0,&quot;rounded&quot;:0};" vertex="1" parent="1">
          <mxGeometry x="3520" y="2267" width="170" height="980" as="geometry" />
        </mxCell>
        <mxCell id="OFbl8fYpySPx44W1aXAL-270" value="" style="html=1;points=[[0,0,0,0,5],[0,1,0,0,-5],[1,0,0,0,5],[1,1,0,0,-5]];perimeter=orthogonalPerimeter;outlineConnect=0;targetShapes=umlLifeline;portConstraint=eastwest;newEdgeStyle={&quot;curved&quot;:0,&quot;rounded&quot;:0};" vertex="1" parent="OFbl8fYpySPx44W1aXAL-269">
          <mxGeometry x="81" y="680" width="10" height="80" as="geometry" />
        </mxCell>
        <mxCell id="OFbl8fYpySPx44W1aXAL-271" value="" style="html=1;points=[[0,0,0,0,5],[0,1,0,0,-5],[1,0,0,0,5],[1,1,0,0,-5]];perimeter=orthogonalPerimeter;outlineConnect=0;targetShapes=umlLifeline;portConstraint=eastwest;newEdgeStyle={&quot;curved&quot;:0,&quot;rounded&quot;:0};" vertex="1" parent="OFbl8fYpySPx44W1aXAL-269">
          <mxGeometry x="81" y="810" width="10" height="70" as="geometry" />
        </mxCell>
        <mxCell id="OFbl8fYpySPx44W1aXAL-272" value="populate_fields()" style="html=1;verticalAlign=bottom;endArrow=block;curved=0;rounded=0;" edge="1" parent="1">
          <mxGeometry width="80" relative="1" as="geometry">
            <mxPoint x="2640" y="2510" as="sourcePoint" />
            <mxPoint x="2845" y="2510" as="targetPoint" />
          </mxGeometry>
        </mxCell>
        <mxCell id="OFbl8fYpySPx44W1aXAL-273" value="on_edit" style="html=1;verticalAlign=bottom;endArrow=block;curved=0;rounded=0;" edge="1" parent="1">
          <mxGeometry x="-0.4274" width="80" relative="1" as="geometry">
            <mxPoint x="2430" y="2347" as="sourcePoint" />
            <mxPoint x="2430" y="2367" as="targetPoint" />
            <Array as="points">
              <mxPoint x="2470" y="2347" />
              <mxPoint x="2470" y="2367" />
            </Array>
            <mxPoint as="offset" />
          </mxGeometry>
        </mxCell>
        <mxCell id="OFbl8fYpySPx44W1aXAL-274" value="setup_form" style="html=1;verticalAlign=bottom;endArrow=block;curved=0;rounded=0;" edge="1" parent="1">
          <mxGeometry x="-0.4274" width="80" relative="1" as="geometry">
            <mxPoint x="2645" y="2427" as="sourcePoint" />
            <mxPoint x="2640" y="2447" as="targetPoint" />
            <Array as="points">
              <mxPoint x="2685" y="2427" />
              <mxPoint x="2685" y="2447" />
            </Array>
            <mxPoint as="offset" />
          </mxGeometry>
        </mxCell>
        <mxCell id="OFbl8fYpySPx44W1aXAL-275" value="" style="html=1;points=[[0,0,0,0,5],[0,1,0,0,-5],[1,0,0,0,5],[1,1,0,0,-5]];perimeter=orthogonalPerimeter;outlineConnect=0;targetShapes=umlLifeline;portConstraint=eastwest;newEdgeStyle={&quot;curved&quot;:0,&quot;rounded&quot;:0};" vertex="1" parent="1">
          <mxGeometry x="2636" y="2469" width="10" height="25" as="geometry" />
        </mxCell>
        <mxCell id="OFbl8fYpySPx44W1aXAL-276" value="setup_buttons" style="html=1;verticalAlign=bottom;endArrow=block;curved=0;rounded=0;" edge="1" parent="1">
          <mxGeometry x="-0.4274" width="80" relative="1" as="geometry">
            <mxPoint x="2646" y="2469" as="sourcePoint" />
            <mxPoint x="2641" y="2489" as="targetPoint" />
            <Array as="points">
              <mxPoint x="2686" y="2469" />
              <mxPoint x="2686" y="2489" />
            </Array>
            <mxPoint as="offset" />
          </mxGeometry>
        </mxCell>
        <mxCell id="OFbl8fYpySPx44W1aXAL-277" value="Вводит поля (Telegram, Email, Номер телефона)" style="html=1;verticalAlign=bottom;startArrow=oval;startFill=1;endArrow=block;startSize=8;curved=0;rounded=0;" edge="1" parent="1">
          <mxGeometry x="-0.1669" width="60" relative="1" as="geometry">
            <mxPoint x="2215.25" y="2782" as="sourcePoint" />
            <mxPoint x="2634.75" y="2782" as="targetPoint" />
            <mxPoint as="offset" />
          </mxGeometry>
        </mxCell>
        <mxCell id="OFbl8fYpySPx44W1aXAL-278" value="valid_data?" style="html=1;verticalAlign=bottom;endArrow=block;curved=0;rounded=0;" edge="1" parent="1">
          <mxGeometry width="80" relative="1" as="geometry">
            <mxPoint x="2640" y="2812" as="sourcePoint" />
            <mxPoint x="2844.5" y="2812" as="targetPoint" />
          </mxGeometry>
        </mxCell>
        <mxCell id="OFbl8fYpySPx44W1aXAL-279" value="return" style="html=1;verticalAlign=bottom;endArrow=open;dashed=1;endSize=8;curved=0;rounded=0;" edge="1" parent="1">
          <mxGeometry relative="1" as="geometry">
            <mxPoint x="2840" y="2828" as="sourcePoint" />
            <mxPoint x="2646" y="2828" as="targetPoint" />
          </mxGeometry>
        </mxCell>
        <mxCell id="OFbl8fYpySPx44W1aXAL-280" value="Нажимает &quot;ОК&quot;" style="html=1;verticalAlign=bottom;startArrow=oval;startFill=1;endArrow=block;startSize=8;curved=0;rounded=0;" edge="1" parent="1">
          <mxGeometry x="-0.1669" width="60" relative="1" as="geometry">
            <mxPoint x="2215.25" y="2852" as="sourcePoint" />
            <mxPoint x="2634.75" y="2852" as="targetPoint" />
            <mxPoint as="offset" />
          </mxGeometry>
        </mxCell>
        <mxCell id="OFbl8fYpySPx44W1aXAL-281" value="save_student" style="html=1;verticalAlign=bottom;endArrow=block;curved=0;rounded=0;" edge="1" parent="1">
          <mxGeometry width="80" relative="1" as="geometry">
            <mxPoint x="2640" y="2892" as="sourcePoint" />
            <mxPoint x="2844.5" y="2892" as="targetPoint" />
          </mxGeometry>
        </mxCell>
        <mxCell id="OFbl8fYpySPx44W1aXAL-282" value="get_student" style="html=1;verticalAlign=bottom;endArrow=block;curved=0;rounded=0;" edge="1" parent="1">
          <mxGeometry x="-0.4274" width="80" relative="1" as="geometry">
            <mxPoint x="2854" y="2509" as="sourcePoint" />
            <mxPoint x="2849" y="2529" as="targetPoint" />
            <Array as="points">
              <mxPoint x="2894" y="2509" />
              <mxPoint x="2894" y="2529" />
            </Array>
            <mxPoint as="offset" />
          </mxGeometry>
        </mxCell>
        <mxCell id="OFbl8fYpySPx44W1aXAL-283" value="get_selected" style="html=1;verticalAlign=bottom;endArrow=block;curved=0;rounded=0;" edge="1" parent="1" target="OFbl8fYpySPx44W1aXAL-260">
          <mxGeometry width="80" relative="1" as="geometry">
            <mxPoint x="2854" y="2547" as="sourcePoint" />
            <mxPoint x="2934" y="2547" as="targetPoint" />
          </mxGeometry>
        </mxCell>
        <mxCell id="OFbl8fYpySPx44W1aXAL-284" value="return" style="html=1;verticalAlign=bottom;endArrow=open;dashed=1;endSize=8;curved=0;rounded=0;" edge="1" parent="1">
          <mxGeometry relative="1" as="geometry">
            <mxPoint x="3080" y="2567" as="sourcePoint" />
            <mxPoint x="2850" y="2567" as="targetPoint" />
          </mxGeometry>
        </mxCell>
        <mxCell id="OFbl8fYpySPx44W1aXAL-285" value="get_student" style="html=1;verticalAlign=bottom;endArrow=block;curved=0;rounded=0;" edge="1" parent="1">
          <mxGeometry width="80" relative="1" as="geometry">
            <mxPoint x="2850" y="2584" as="sourcePoint" />
            <mxPoint x="3081" y="2584" as="targetPoint" />
          </mxGeometry>
        </mxCell>
        <mxCell id="OFbl8fYpySPx44W1aXAL-286" value="get_selected" style="html=1;verticalAlign=bottom;endArrow=block;curved=0;rounded=0;" edge="1" parent="1">
          <mxGeometry width="80" relative="1" as="geometry">
            <mxPoint x="3090" y="2554" as="sourcePoint" />
            <mxPoint x="3321" y="2554" as="targetPoint" />
          </mxGeometry>
        </mxCell>
        <mxCell id="OFbl8fYpySPx44W1aXAL-287" value="return" style="html=1;verticalAlign=bottom;endArrow=open;dashed=1;endSize=8;curved=0;rounded=0;" edge="1" parent="1">
          <mxGeometry x="0.0435" y="15" relative="1" as="geometry">
            <mxPoint x="3320" y="2562" as="sourcePoint" />
            <mxPoint x="3090" y="2562" as="targetPoint" />
            <mxPoint as="offset" />
          </mxGeometry>
        </mxCell>
        <mxCell id="OFbl8fYpySPx44W1aXAL-288" value="" style="html=1;verticalAlign=bottom;endArrow=block;curved=0;rounded=0;" edge="1" parent="1" target="OFbl8fYpySPx44W1aXAL-290">
          <mxGeometry width="80" relative="1" as="geometry">
            <mxPoint x="3090" y="2597" as="sourcePoint" />
            <mxPoint x="3605" y="2597" as="targetPoint" />
          </mxGeometry>
        </mxCell>
        <mxCell id="OFbl8fYpySPx44W1aXAL-289" value="get_student()" style="edgeLabel;html=1;align=center;verticalAlign=middle;resizable=0;points=[];" vertex="1" connectable="0" parent="OFbl8fYpySPx44W1aXAL-288">
          <mxGeometry x="-0.0359" y="-1" relative="1" as="geometry">
            <mxPoint as="offset" />
          </mxGeometry>
        </mxCell>
        <mxCell id="OFbl8fYpySPx44W1aXAL-290" value="" style="html=1;points=[[0,0,0,0,5],[0,1,0,0,-5],[1,0,0,0,5],[1,1,0,0,-5]];perimeter=orthogonalPerimeter;outlineConnect=0;targetShapes=umlLifeline;portConstraint=eastwest;newEdgeStyle={&quot;curved&quot;:0,&quot;rounded&quot;:0};" vertex="1" parent="1">
          <mxGeometry x="3600" y="2596" width="10" height="61" as="geometry" />
        </mxCell>
        <mxCell id="OFbl8fYpySPx44W1aXAL-291" value="query()" style="html=1;verticalAlign=bottom;endArrow=block;curved=0;rounded=0;" edge="1" parent="1" target="OFbl8fYpySPx44W1aXAL-267">
          <mxGeometry width="80" relative="1" as="geometry">
            <mxPoint x="3610" y="2607" as="sourcePoint" />
            <mxPoint x="3690" y="2607" as="targetPoint" />
          </mxGeometry>
        </mxCell>
        <mxCell id="OFbl8fYpySPx44W1aXAL-292" value="return" style="html=1;verticalAlign=bottom;endArrow=open;dashed=1;endSize=8;curved=0;rounded=0;" edge="1" parent="1" source="OFbl8fYpySPx44W1aXAL-268">
          <mxGeometry relative="1" as="geometry">
            <mxPoint x="3959" y="2625.5" as="sourcePoint" />
            <mxPoint x="3609" y="2625.5" as="targetPoint" />
          </mxGeometry>
        </mxCell>
        <mxCell id="OFbl8fYpySPx44W1aXAL-293" value="return" style="html=1;verticalAlign=bottom;endArrow=open;dashed=1;endSize=8;curved=0;rounded=0;" edge="1" parent="1" target="OFbl8fYpySPx44W1aXAL-260">
          <mxGeometry relative="1" as="geometry">
            <mxPoint x="3600" y="2647" as="sourcePoint" />
            <mxPoint x="3520" y="2647" as="targetPoint" />
          </mxGeometry>
        </mxCell>
        <mxCell id="OFbl8fYpySPx44W1aXAL-294" value="return" style="html=1;verticalAlign=bottom;endArrow=open;dashed=1;endSize=8;curved=0;rounded=0;" edge="1" parent="1">
          <mxGeometry relative="1" as="geometry">
            <mxPoint x="3080" y="2657" as="sourcePoint" />
            <mxPoint x="2850" y="2657" as="targetPoint" />
          </mxGeometry>
        </mxCell>
        <mxCell id="OFbl8fYpySPx44W1aXAL-295" value="fields=()" style="html=1;verticalAlign=bottom;endArrow=block;curved=0;rounded=0;exitX=0;exitY=1;exitDx=0;exitDy=-5;exitPerimeter=0;" edge="1" parent="1">
          <mxGeometry width="80" relative="1" as="geometry">
            <mxPoint x="2844" y="2677" as="sourcePoint" />
            <mxPoint x="2640" y="2677" as="targetPoint" />
          </mxGeometry>
        </mxCell>
        <mxCell id="OFbl8fYpySPx44W1aXAL-296" value="new_student" style="html=1;verticalAlign=bottom;endArrow=block;curved=0;rounded=0;" edge="1" parent="1">
          <mxGeometry x="-0.4274" width="80" relative="1" as="geometry">
            <mxPoint x="2853" y="2892" as="sourcePoint" />
            <mxPoint x="2852" y="2912" as="targetPoint" />
            <Array as="points">
              <mxPoint x="2893" y="2892" />
              <mxPoint x="2893" y="2912" />
            </Array>
            <mxPoint as="offset" />
          </mxGeometry>
        </mxCell>
        <mxCell id="OFbl8fYpySPx44W1aXAL-297" value="replace_student" style="html=1;verticalAlign=bottom;endArrow=block;curved=0;rounded=0;" edge="1" parent="1" target="OFbl8fYpySPx44W1aXAL-260">
          <mxGeometry width="80" relative="1" as="geometry">
            <mxPoint x="2854" y="2937" as="sourcePoint" />
            <mxPoint x="2934" y="2937" as="targetPoint" />
          </mxGeometry>
        </mxCell>
        <mxCell id="OFbl8fYpySPx44W1aXAL-298" value="replace_student" style="html=1;verticalAlign=bottom;endArrow=block;curved=0;rounded=0;" edge="1" parent="1" target="OFbl8fYpySPx44W1aXAL-269">
          <mxGeometry width="80" relative="1" as="geometry">
            <mxPoint x="3090" y="2957" as="sourcePoint" />
            <mxPoint x="3320" y="2957" as="targetPoint" />
          </mxGeometry>
        </mxCell>
        <mxCell id="OFbl8fYpySPx44W1aXAL-299" value="query()" style="html=1;verticalAlign=bottom;endArrow=block;curved=0;rounded=0;" edge="1" parent="1" source="OFbl8fYpySPx44W1aXAL-301" target="OFbl8fYpySPx44W1aXAL-267">
          <mxGeometry y="126" width="80" relative="1" as="geometry">
            <mxPoint x="3610" y="2977" as="sourcePoint" />
            <mxPoint x="3690" y="2977" as="targetPoint" />
            <mxPoint x="-125" y="-19" as="offset" />
          </mxGeometry>
        </mxCell>
        <mxCell id="OFbl8fYpySPx44W1aXAL-300" value="" style="html=1;verticalAlign=bottom;endArrow=block;curved=0;rounded=0;" edge="1" parent="1" target="OFbl8fYpySPx44W1aXAL-301">
          <mxGeometry width="80" relative="1" as="geometry">
            <mxPoint x="3610" y="2977" as="sourcePoint" />
            <mxPoint x="3864" y="2977" as="targetPoint" />
          </mxGeometry>
        </mxCell>
        <mxCell id="OFbl8fYpySPx44W1aXAL-301" value="" style="html=1;points=[[0,0,0,0,5],[0,1,0,0,-5],[1,0,0,0,5],[1,1,0,0,-5]];perimeter=orthogonalPerimeter;outlineConnect=0;targetShapes=umlLifeline;portConstraint=eastwest;newEdgeStyle={&quot;curved&quot;:0,&quot;rounded&quot;:0};" vertex="1" parent="1">
          <mxGeometry x="3861" y="2966" width="10" height="41" as="geometry" />
        </mxCell>
        <mxCell id="OFbl8fYpySPx44W1aXAL-302" value="return" style="html=1;verticalAlign=bottom;endArrow=open;dashed=1;endSize=8;curved=0;rounded=0;" edge="1" parent="1" target="OFbl8fYpySPx44W1aXAL-269">
          <mxGeometry relative="1" as="geometry">
            <mxPoint x="3860" y="2997" as="sourcePoint" />
            <mxPoint x="3780" y="2997" as="targetPoint" />
          </mxGeometry>
        </mxCell>
        <mxCell id="OFbl8fYpySPx44W1aXAL-303" value="return" style="html=1;verticalAlign=bottom;endArrow=open;dashed=1;endSize=8;curved=0;rounded=0;" edge="1" parent="1" target="OFbl8fYpySPx44W1aXAL-260">
          <mxGeometry relative="1" as="geometry">
            <mxPoint x="3600" y="3017" as="sourcePoint" />
            <mxPoint x="3520" y="3017" as="targetPoint" />
          </mxGeometry>
        </mxCell>
        <mxCell id="OFbl8fYpySPx44W1aXAL-304" value="refresh_data" style="html=1;verticalAlign=bottom;endArrow=block;curved=0;rounded=0;" edge="1" parent="1">
          <mxGeometry x="-0.0099" y="9" width="80" relative="1" as="geometry">
            <mxPoint x="3091" y="3037" as="sourcePoint" />
            <mxPoint x="3090" y="3057" as="targetPoint" />
            <Array as="points">
              <mxPoint x="3131" y="3037" />
              <mxPoint x="3131" y="3057" />
            </Array>
            <mxPoint as="offset" />
          </mxGeometry>
        </mxCell>
        <mxCell id="OFbl8fYpySPx44W1aXAL-305" value="get_k_n_students" style="html=1;verticalAlign=bottom;endArrow=block;curved=0;rounded=0;" edge="1" parent="1" target="OFbl8fYpySPx44W1aXAL-269">
          <mxGeometry width="80" relative="1" as="geometry">
            <mxPoint x="3099" y="3087" as="sourcePoint" />
            <mxPoint x="3179" y="3087" as="targetPoint" />
          </mxGeometry>
        </mxCell>
        <mxCell id="OFbl8fYpySPx44W1aXAL-306" value="" style="html=1;verticalAlign=bottom;endArrow=block;curved=0;rounded=0;" edge="1" parent="1" target="OFbl8fYpySPx44W1aXAL-307">
          <mxGeometry width="80" relative="1" as="geometry">
            <mxPoint x="3610" y="3097" as="sourcePoint" />
            <mxPoint x="3864" y="3097" as="targetPoint" />
          </mxGeometry>
        </mxCell>
        <mxCell id="OFbl8fYpySPx44W1aXAL-307" value="" style="html=1;points=[[0,0,0,0,5],[0,1,0,0,-5],[1,0,0,0,5],[1,1,0,0,-5]];perimeter=orthogonalPerimeter;outlineConnect=0;targetShapes=umlLifeline;portConstraint=eastwest;newEdgeStyle={&quot;curved&quot;:0,&quot;rounded&quot;:0};" vertex="1" parent="1">
          <mxGeometry x="3861" y="3086" width="10" height="41" as="geometry" />
        </mxCell>
        <mxCell id="OFbl8fYpySPx44W1aXAL-308" value="return" style="html=1;verticalAlign=bottom;endArrow=open;dashed=1;endSize=8;curved=0;rounded=0;" edge="1" parent="1">
          <mxGeometry relative="1" as="geometry">
            <mxPoint x="3860" y="3117" as="sourcePoint" />
            <mxPoint x="3605" y="3117" as="targetPoint" />
          </mxGeometry>
        </mxCell>
        <mxCell id="OFbl8fYpySPx44W1aXAL-309" value="return" style="html=1;verticalAlign=bottom;endArrow=open;dashed=1;endSize=8;curved=0;rounded=0;" edge="1" parent="1" target="OFbl8fYpySPx44W1aXAL-263">
          <mxGeometry relative="1" as="geometry">
            <mxPoint x="3600" y="3137" as="sourcePoint" />
            <mxPoint x="3100" y="3137" as="targetPoint" />
          </mxGeometry>
        </mxCell>
        <mxCell id="OFbl8fYpySPx44W1aXAL-310" value="notify" style="html=1;verticalAlign=bottom;endArrow=block;curved=0;rounded=0;" edge="1" parent="1" target="OFbl8fYpySPx44W1aXAL-264">
          <mxGeometry width="80" relative="1" as="geometry">
            <mxPoint x="3100" y="3167" as="sourcePoint" />
            <mxPoint x="3170" y="3167" as="targetPoint" />
          </mxGeometry>
        </mxCell>
        <mxCell id="OFbl8fYpySPx44W1aXAL-311" value="set_table_params" style="html=1;verticalAlign=bottom;endArrow=block;curved=0;rounded=0;" edge="1" parent="1">
          <mxGeometry width="80" relative="1" as="geometry">
            <mxPoint x="3324.5" y="3223" as="sourcePoint" />
            <mxPoint x="2430" y="3223" as="targetPoint" />
          </mxGeometry>
        </mxCell>
        <mxCell id="OFbl8fYpySPx44W1aXAL-312" value="set_table_data" style="html=1;verticalAlign=bottom;endArrow=block;curved=0;rounded=0;" edge="1" parent="1">
          <mxGeometry width="80" relative="1" as="geometry">
            <mxPoint x="3324.5" y="3255" as="sourcePoint" />
            <mxPoint x="2430" y="3255" as="targetPoint" />
          </mxGeometry>
        </mxCell>
        <mxCell id="OFbl8fYpySPx44W1aXAL-313" value="Отображение новых данных" style="html=1;verticalAlign=bottom;endArrow=block;curved=0;rounded=0;exitX=0;exitY=1;exitDx=0;exitDy=-5;exitPerimeter=0;" edge="1" parent="1">
          <mxGeometry width="80" relative="1" as="geometry">
            <mxPoint x="2420" y="3275" as="sourcePoint" />
            <mxPoint x="2209.810344827586" y="3275" as="targetPoint" />
          </mxGeometry>
        </mxCell>
        <mxCell id="OFbl8fYpySPx44W1aXAL-314" value="return" style="html=1;verticalAlign=bottom;endArrow=open;dashed=1;endSize=8;curved=0;rounded=0;" edge="1" parent="1">
          <mxGeometry relative="1" as="geometry">
            <mxPoint x="3080" y="3187" as="sourcePoint" />
            <mxPoint x="2850" y="3187" as="targetPoint" />
          </mxGeometry>
        </mxCell>
        <mxCell id="OFbl8fYpySPx44W1aXAL-315" value="close()" style="html=1;verticalAlign=bottom;endArrow=block;curved=0;rounded=0;" edge="1" parent="1">
          <mxGeometry width="80" relative="1" as="geometry">
            <mxPoint x="2840" y="3197" as="sourcePoint" />
            <mxPoint x="2645" y="3197" as="targetPoint" />
          </mxGeometry>
        </mxCell>
        <mxCell id="OFbl8fYpySPx44W1aXAL-316" value="&lt;p style=&quot;line-height: 220%;&quot;&gt;&lt;font style=&quot;font-size: 72px;&quot;&gt;Изменение контактов&lt;/font&gt;&lt;/p&gt;" style="text;html=1;align=center;verticalAlign=middle;resizable=0;points=[];autosize=1;strokeColor=none;fillColor=none;" vertex="1" parent="1">
          <mxGeometry x="2280" y="2120" width="740" height="80" as="geometry" />
        </mxCell>
      </root>
    </mxGraphModel>
  </diagram>
</mxfile>
